<svg xmlns="http://www.w3.org/2000/svg" viewBox="0 0 750 500"><g id="freepik--background-simple--inject-200"><path d="M639.77,136.84c-11.72-20.68-26.13-39.37-43.62-54.7C536,29.44,446,24.77,375.62,51.61,354.82,59.54,335,70.82,318,86.49c-12.35,11.39-22.92,24.93-35.22,36.37-12.94,12-28.92,12.28-45.15,11.28q-35.06-2.16-70-6.59c-20.27-2.58-39.35-6.8-59.42-.58-33.9,10.53-60.76,43.37-71.14,80.17-13,46.22-4.12,97.12,13.82,141.26,6.21,15.28,13.68,30.2,16.92,46.64,3.36,17.09,10.15,34.55,21.62,47.24,13.35,14.77,34.2,19.93,52.22,23.74,35,7.4,70.9,3.31,105.22-6,32.33-8.76,65.35-23.9,99.4-24.16,38.21-.28,74.54,17.09,112.09,24.93,33.61,7,68.37,6.65,102,0,30.52-6,63.81-15.62,86.21-41,59.17-67.06,39.17-179.61,6.52-255.64A277.91,277.91,0,0,0,639.77,136.84Z" style="fill:#407BFF"></path><path d="M639.77,136.84c-11.72-20.68-26.13-39.37-43.62-54.7C536,29.44,446,24.77,375.62,51.61,354.82,59.54,335,70.82,318,86.49c-12.35,11.39-22.92,24.93-35.22,36.37-12.94,12-28.92,12.28-45.15,11.28q-35.06-2.16-70-6.59c-20.27-2.58-39.35-6.8-59.42-.58-33.9,10.53-60.76,43.37-71.14,80.17-13,46.22-4.12,97.12,13.82,141.26,6.21,15.28,13.68,30.2,16.92,46.64,3.36,17.09,10.15,34.55,21.62,47.24,13.35,14.77,34.2,19.93,52.22,23.74,35,7.4,70.9,3.31,105.22-6,32.33-8.76,65.35-23.9,99.4-24.16,38.21-.28,74.54,17.09,112.09,24.93,33.61,7,68.37,6.65,102,0,30.52-6,63.81-15.62,86.21-41,59.17-67.06,39.17-179.61,6.52-255.64A277.91,277.91,0,0,0,639.77,136.84Z" style="fill:#fff;opacity:0.7000000000000001"></path></g><g id="freepik--City--inject-200"><g style="opacity:0.2"><polygon points="196.87 356.77 178.41 356.77 178.41 213.55 163.27 213.55 163.27 98.28 93.83 98.28 93.83 340.46 66.55 340.46 66.55 339.46 92.83 339.46 92.83 97.28 164.27 97.28 164.27 212.55 179.41 212.55 179.41 355.77 195.87 355.77 195.87 141.99 228.47 141.99 228.47 55.36 281.87 55.36 281.87 214.88 300.66 214.88 300.66 151.42 345.91 151.42 345.91 165.4 383.75 165.4 383.75 354.02 397.89 354.02 397.89 319.67 440.22 319.67 440.22 353.44 459.01 353.44 459.01 183.44 526.97 183.44 526.97 342.96 545.18 342.96 545.18 120.57 568.46 120.57 568.46 79.81 580.11 79.81 580.11 56.53 599.74 56.53 599.74 207.31 630.01 207.31 630.01 351.11 652.8 351.11 652.8 352.11 629.01 352.11 629.01 208.31 598.74 208.31 598.74 57.53 581.11 57.53 581.11 80.81 569.46 80.81 569.46 121.57 546.18 121.57 546.18 343.96 525.97 343.96 525.97 184.44 460.01 184.44 460.01 354.44 439.22 354.44 439.22 320.67 398.89 320.67 398.89 355.02 382.75 355.02 382.75 166.4 344.91 166.4 344.91 152.42 301.66 152.42 301.66 215.88 280.87 215.88 280.87 56.36 229.47 56.36 229.47 142.99 196.87 142.99 196.87 356.77"></polygon><path d="M164.27,98.28H92.83V89.71h71.44Zm-70.44-1h69.44V90.71H93.83Z"></path><path d="M229.47,146.82h-33.8V142h33.8Zm-32.8-1h31.8V143h-31.8Z"></path><path d="M281.87,60.09H228.32V55.36h53.55Zm-52.55-1h51.55V56.36H229.32Z"></path><path d="M313.48,152.42h-8.65v-8.91h8.65Zm-7.65-1h6.65v-6.91h-6.65Z"></path><path d="M333.38,152.42h-4.83v-5.59h4.83Zm-3.83-1h2.83v-3.59h-2.83Z"></path><path d="M383.88,171h-39v-5.64h39Zm-38-1h37v-3.64h-37Z"></path><path d="M527,184.44H459V180h68Zm-67-1h66V181H460Z"></path><path d="M503.75,181H476.22V173.1h27.53Zm-26.53-1h25.53V174.1H477.22Z"></path><polygon points="517.52 180.23 516.52 180.23 516.52 167.97 498.13 167.97 498.13 173.85 497.13 173.85 497.13 166.97 517.52 166.97 517.52 180.23"></polygon><polygon points="541.18 170.87 519.57 170.87 519.57 83.01 452.84 83.01 452.84 155.65 430.73 155.65 430.73 112.95 370.38 112.95 370.38 163.99 369.38 163.99 369.38 111.95 431.73 111.95 431.73 154.65 451.84 154.65 451.84 82.01 520.57 82.01 520.57 169.87 541.18 169.87 541.18 170.87"></polygon><polygon points="326.2 138.47 325.2 138.47 325.2 82.03 283.98 82.03 283.98 81.03 326.2 81.03 326.2 138.47"></polygon><polygon points="194.16 153.2 179.92 153.2 179.92 113.44 167.17 113.44 167.17 112.44 180.92 112.44 180.92 152.2 194.16 152.2 194.16 153.2"></polygon><polygon points="80.3 296.51 79.3 296.51 79.3 141.4 91.09 141.4 91.09 142.4 80.3 142.4 80.3 296.51"></polygon><polygon points="562.29 113.43 561.29 113.43 561.29 94.28 567.68 94.28 567.68 95.28 562.29 95.28 562.29 113.43"></polygon><polygon points="658.99 263.63 657.99 263.63 657.99 173.81 622.15 173.81 622.15 95.77 601.55 95.77 601.55 94.77 623.15 94.77 623.15 172.81 658.99 172.81 658.99 263.63"></polygon><path d="M238.71,77.61h-6.27V66.31h6.27Zm-5.27-1h4.27v-9.3h-4.27Z"></path><path d="M248.19,77.61h-6.27V66.31h6.27Zm-5.27-1h4.27v-9.3h-4.27Z"></path><path d="M257.67,77.61H251.4V66.31h6.27Zm-5.27-1h4.27v-9.3H252.4Z"></path><path d="M267.15,77.61h-6.27V66.31h6.27Zm-5.27-1h4.27v-9.3h-4.27Z"></path><path d="M276.63,77.61h-6.27V66.31h6.27Zm-5.27-1h4.27v-9.3h-4.27Z"></path><path d="M238.71,95h-6.27V83.73h6.27Zm-5.27-1h4.27V84.73h-4.27Z"></path><path d="M248.19,95h-6.27V83.73h6.27Zm-5.27-1h4.27V84.73h-4.27Z"></path><path d="M257.67,95H251.4V83.73h6.27Zm-5.27-1h4.27V84.73H252.4Z"></path><path d="M267.15,95h-6.27V83.73h6.27Zm-5.27-1h4.27V84.73h-4.27Z"></path><path d="M276.63,95h-6.27V83.73h6.27Zm-5.27-1h4.27V84.73h-4.27Z"></path><path d="M238.71,112.46h-6.27V101.15h6.27Zm-5.27-1h4.27v-9.31h-4.27Z"></path><path d="M248.19,112.46h-6.27V101.15h6.27Zm-5.27-1h4.27v-9.31h-4.27Z"></path><path d="M257.67,112.46H251.4V101.15h6.27Zm-5.27-1h4.27v-9.31H252.4Z"></path><path d="M267.15,112.46h-6.27V101.15h6.27Zm-5.27-1h4.27v-9.31h-4.27Z"></path><path d="M276.63,112.46h-6.27V101.15h6.27Zm-5.27-1h4.27v-9.31h-4.27Z"></path><path d="M238.71,129.89h-6.27V118.58h6.27Zm-5.27-1h4.27v-9.31h-4.27Z"></path><path d="M248.19,129.89h-6.27V118.58h6.27Zm-5.27-1h4.27v-9.31h-4.27Z"></path><path d="M257.67,129.89H251.4V118.58h6.27Zm-5.27-1h4.27v-9.31H252.4Z"></path><path d="M267.15,129.89h-6.27V118.58h6.27Zm-5.27-1h4.27v-9.31h-4.27Z"></path><path d="M276.63,129.89h-6.27V118.58h6.27Zm-5.27-1h4.27v-9.31h-4.27Z"></path><path d="M238.71,147.31h-6.27V136h6.27Zm-5.27-1h4.27V137h-4.27Z"></path><path d="M248.19,147.31h-6.27V136h6.27Zm-5.27-1h4.27V137h-4.27Z"></path><path d="M257.67,147.31H251.4V136h6.27Zm-5.27-1h4.27V137H252.4Z"></path><path d="M267.15,147.31h-6.27V136h6.27Zm-5.27-1h4.27V137h-4.27Z"></path><path d="M276.63,147.31h-6.27V136h6.27Zm-5.27-1h4.27V137h-4.27Z"></path><path d="M238.71,164.73h-6.27v-11.3h6.27Zm-5.27-1h4.27v-9.3h-4.27Z"></path><path d="M248.19,164.73h-6.27v-11.3h6.27Zm-5.27-1h4.27v-9.3h-4.27Z"></path><path d="M257.67,164.73H251.4v-11.3h6.27Zm-5.27-1h4.27v-9.3H252.4Z"></path><path d="M267.15,164.73h-6.27v-11.3h6.27Zm-5.27-1h4.27v-9.3h-4.27Z"></path><path d="M276.63,164.73h-6.27v-11.3h6.27Zm-5.27-1h4.27v-9.3h-4.27Z"></path><path d="M206.38,164.73h-6.27v-11.3h6.27Zm-5.27-1h4.27v-9.3h-4.27Z"></path><path d="M215.86,164.73h-6.27v-11.3h6.27Zm-5.27-1h4.27v-9.3h-4.27Z"></path><path d="M225.34,164.73h-6.26v-11.3h6.26Zm-5.26-1h4.26v-9.3h-4.26Z"></path><path d="M206.38,181.67h-6.27V170.36h6.27Zm-5.27-1h4.27v-9.31h-4.27Z"></path><path d="M215.86,181.67h-6.27V170.36h6.27Zm-5.27-1h4.27v-9.31h-4.27Z"></path><path d="M225.34,181.67h-6.26V170.36h6.26Zm-5.26-1h4.26v-9.31h-4.26Z"></path><path d="M206.38,198.6h-6.27V187.29h6.27Zm-5.27-1h4.27v-9.31h-4.27Z"></path><path d="M215.86,198.6h-6.27V187.29h6.27Zm-5.27-1h4.27v-9.31h-4.27Z"></path><path d="M225.34,198.6h-6.26V187.29h6.26Zm-5.26-1h4.26v-9.31h-4.26Z"></path><path d="M206.38,215.54h-6.27V204.23h6.27Zm-5.27-1h4.27v-9.31h-4.27Z"></path><path d="M215.86,215.54h-6.27V204.23h6.27Zm-5.27-1h4.27v-9.31h-4.27Z"></path><path d="M225.34,215.54h-6.26V204.23h6.26Zm-5.26-1h4.26v-9.31h-4.26Z"></path><path d="M206.38,232.47h-6.27V221.16h6.27Zm-5.27-1h4.27v-9.31h-4.27Z"></path><path d="M215.86,232.47h-6.27V221.16h6.27Zm-5.27-1h4.27v-9.31h-4.27Z"></path><path d="M225.34,232.47h-6.26V221.16h6.26Zm-5.26-1h4.26v-9.31h-4.26Z"></path><path d="M206.38,249.4h-6.27V238.1h6.27Zm-5.27-1h4.27v-9.3h-4.27Z"></path><path d="M215.86,249.4h-6.27V238.1h6.27Zm-5.27-1h4.27v-9.3h-4.27Z"></path><path d="M225.34,249.4h-6.26V238.1h6.26Zm-5.26-1h4.26v-9.3h-4.26Z"></path><path d="M206.38,266.34h-6.27V255h6.27Zm-5.27-1h4.27V256h-4.27Z"></path><path d="M215.86,266.34h-6.27V255h6.27Zm-5.27-1h4.27V256h-4.27Z"></path><path d="M225.34,266.34h-6.26V255h6.26Zm-5.26-1h4.26V256h-4.26Z"></path><path d="M206.38,283.27h-6.27V272h6.27Zm-5.27-1h4.27V273h-4.27Z"></path><path d="M215.86,283.27h-6.27V272h6.27Zm-5.27-1h4.27V273h-4.27Z"></path><path d="M225.34,283.27h-6.26V272h6.26Zm-5.26-1h4.26V273h-4.26Z"></path><path d="M206.38,300.2h-6.27V288.9h6.27Zm-5.27-1h4.27v-9.3h-4.27Z"></path><path d="M215.86,300.2h-6.27V288.9h6.27Zm-5.27-1h4.27v-9.3h-4.27Z"></path><path d="M225.34,300.2h-6.26V288.9h6.26Zm-5.26-1h4.26v-9.3h-4.26Z"></path><path d="M206.38,317.14h-6.27V305.83h6.27Zm-5.27-1h4.27v-9.31h-4.27Z"></path><path d="M215.86,317.14h-6.27V305.83h6.27Zm-5.27-1h4.27v-9.31h-4.27Z"></path><path d="M225.34,317.14h-6.26V305.83h6.26Zm-5.26-1h4.26v-9.31h-4.26Z"></path><path d="M206.38,334.07h-6.27V322.76h6.27Zm-5.27-1h4.27v-9.31h-4.27Z"></path><path d="M215.86,334.07h-6.27V322.76h6.27Zm-5.27-1h4.27v-9.31h-4.27Z"></path><path d="M225.34,334.07h-6.26V322.76h6.26Zm-5.26-1h4.26v-9.31h-4.26Z"></path><path d="M290.92,234.43h-6.27V223.12h6.27Zm-5.27-1h4.27v-9.31h-4.27Z"></path><path d="M300.4,234.43h-6.27V223.12h6.27Zm-5.27-1h4.27v-9.31h-4.27Z"></path><path d="M290.92,251.37h-6.27V240.06h6.27Zm-5.27-1h4.27v-9.31h-4.27Z"></path><path d="M300.4,251.37h-6.27V240.06h6.27Zm-5.27-1h4.27v-9.31h-4.27Z"></path><path d="M290.92,268.3h-6.27V257h6.27Zm-5.27-1h4.27V258h-4.27Z"></path><path d="M300.4,268.3h-6.27V257h6.27Zm-5.27-1h4.27V258h-4.27Z"></path><path d="M290.92,285.23h-6.27v-11.3h6.27Zm-5.27-1h4.27v-9.3h-4.27Z"></path><path d="M300.4,285.23h-6.27v-11.3h6.27Zm-5.27-1h4.27v-9.3h-4.27Z"></path><path d="M290.92,302.17h-6.27V290.86h6.27Zm-5.27-1h4.27v-9.31h-4.27Z"></path><path d="M300.4,302.17h-6.27V290.86h6.27Zm-5.27-1h4.27v-9.31h-4.27Z"></path><path d="M290.92,319.1h-6.27V307.79h6.27Zm-5.27-1h4.27v-9.31h-4.27Z"></path><path d="M300.4,319.1h-6.27V307.79h6.27Zm-5.27-1h4.27v-9.31h-4.27Z"></path><path d="M290.92,336h-6.27v-11.3h6.27Zm-5.27-1h4.27v-9.3h-4.27Z"></path><path d="M300.4,336h-6.27v-11.3h6.27Zm-5.27-1h4.27v-9.3h-4.27Z"></path><path d="M238.71,182.16h-6.27V170.85h6.27Zm-5.27-1h4.27v-9.31h-4.27Z"></path><path d="M248.19,182.16h-6.27V170.85h6.27Zm-5.27-1h4.27v-9.31h-4.27Z"></path><path d="M257.67,182.16H251.4V170.85h6.27Zm-5.27-1h4.27v-9.31H252.4Z"></path><path d="M267.15,182.16h-6.27V170.85h6.27Zm-5.27-1h4.27v-9.31h-4.27Z"></path><path d="M276.63,182.16h-6.27V170.85h6.27Zm-5.27-1h4.27v-9.31h-4.27Z"></path><path d="M238.71,199.58h-6.27v-11.3h6.27Zm-5.27-1h4.27v-9.3h-4.27Z"></path><path d="M248.19,199.58h-6.27v-11.3h6.27Zm-5.27-1h4.27v-9.3h-4.27Z"></path><path d="M257.67,199.58H251.4v-11.3h6.27Zm-5.27-1h4.27v-9.3H252.4Z"></path><path d="M267.15,199.58h-6.27v-11.3h6.27Zm-5.27-1h4.27v-9.3h-4.27Z"></path><path d="M276.63,199.58h-6.27v-11.3h6.27Zm-5.27-1h4.27v-9.3h-4.27Z"></path><path d="M238.71,217h-6.27V205.7h6.27Zm-5.27-1h4.27V206.7h-4.27Z"></path><path d="M248.19,217h-6.27V205.7h6.27Zm-5.27-1h4.27V206.7h-4.27Z"></path><path d="M257.67,217H251.4V205.7h6.27Zm-5.27-1h4.27V206.7H252.4Z"></path><path d="M267.15,217h-6.27V205.7h6.27Zm-5.27-1h4.27V206.7h-4.27Z"></path><path d="M276.63,217h-6.27V205.7h6.27Zm-5.27-1h4.27V206.7h-4.27Z"></path><path d="M238.71,234.43h-6.27V223.12h6.27Zm-5.27-1h4.27v-9.31h-4.27Z"></path><path d="M248.19,234.43h-6.27V223.12h6.27Zm-5.27-1h4.27v-9.31h-4.27Z"></path><path d="M257.67,234.43H251.4V223.12h6.27Zm-5.27-1h4.27v-9.31H252.4Z"></path><path d="M267.15,234.43h-6.27V223.12h6.27Zm-5.27-1h4.27v-9.31h-4.27Z"></path><path d="M276.63,234.43h-6.27V223.12h6.27Zm-5.27-1h4.27v-9.31h-4.27Z"></path><path d="M238.71,251.86h-6.27V240.55h6.27Zm-5.27-1h4.27v-9.31h-4.27Z"></path><path d="M248.19,251.86h-6.27V240.55h6.27Zm-5.27-1h4.27v-9.31h-4.27Z"></path><path d="M257.67,251.86H251.4V240.55h6.27Zm-5.27-1h4.27v-9.31H252.4Z"></path><path d="M267.15,251.86h-6.27V240.55h6.27Zm-5.27-1h4.27v-9.31h-4.27Z"></path><path d="M276.63,251.86h-6.27V240.55h6.27Zm-5.27-1h4.27v-9.31h-4.27Z"></path><path d="M238.71,269.28h-6.27V258h6.27Zm-5.27-1h4.27V259h-4.27Z"></path><path d="M248.19,269.28h-6.27V258h6.27Zm-5.27-1h4.27V259h-4.27Z"></path><path d="M257.67,269.28H251.4V258h6.27Zm-5.27-1h4.27V259H252.4Z"></path><path d="M267.15,269.28h-6.27V258h6.27Zm-5.27-1h4.27V259h-4.27Z"></path><path d="M276.63,269.28h-6.27V258h6.27Zm-5.27-1h4.27V259h-4.27Z"></path><path d="M238.71,286.71h-6.27V275.4h6.27Zm-5.27-1h4.27V276.4h-4.27Z"></path><path d="M248.19,286.71h-6.27V275.4h6.27Zm-5.27-1h4.27V276.4h-4.27Z"></path><path d="M257.67,286.71H251.4V275.4h6.27Zm-5.27-1h4.27V276.4H252.4Z"></path><path d="M267.15,286.71h-6.27V275.4h6.27Zm-5.27-1h4.27V276.4h-4.27Z"></path><path d="M276.63,286.71h-6.27V275.4h6.27Zm-5.27-1h4.27V276.4h-4.27Z"></path><path d="M238.71,304.13h-6.27V292.82h6.27Zm-5.27-1h4.27v-9.31h-4.27Z"></path><path d="M248.19,304.13h-6.27V292.82h6.27Zm-5.27-1h4.27v-9.31h-4.27Z"></path><path d="M257.67,304.13H251.4V292.82h6.27Zm-5.27-1h4.27v-9.31H252.4Z"></path><path d="M267.15,304.13h-6.27V292.82h6.27Zm-5.27-1h4.27v-9.31h-4.27Z"></path><path d="M276.63,304.13h-6.27V292.82h6.27Zm-5.27-1h4.27v-9.31h-4.27Z"></path><path d="M238.71,321.55h-6.27v-11.3h6.27Zm-5.27-1h4.27v-9.3h-4.27Z"></path><path d="M248.19,321.55h-6.27v-11.3h6.27Zm-5.27-1h4.27v-9.3h-4.27Z"></path><path d="M257.67,321.55H251.4v-11.3h6.27Zm-5.27-1h4.27v-9.3H252.4Z"></path><path d="M267.15,321.55h-6.27v-11.3h6.27Zm-5.27-1h4.27v-9.3h-4.27Z"></path><path d="M276.63,321.55h-6.27v-11.3h6.27Zm-5.27-1h4.27v-9.3h-4.27Z"></path><path d="M238.71,339.47h-6.27V328.16h6.27Zm-5.27-1h4.27v-9.31h-4.27Z"></path><path d="M248.19,339.47h-6.27V328.16h6.27Zm-5.27-1h4.27v-9.31h-4.27Z"></path><path d="M257.67,339.47H251.4V328.16h6.27Zm-5.27-1h4.27v-9.31H252.4Z"></path><path d="M267.15,339.47h-6.27V328.16h6.27Zm-5.27-1h4.27v-9.31h-4.27Z"></path><path d="M276.63,339.47h-6.27V328.16h6.27Zm-5.27-1h4.27v-9.31h-4.27Z"></path><rect x="228.47" y="146.32" width="1" height="210.07"></rect><rect x="309.01" y="156.14" width="1" height="197.31"></rect><rect x="319.31" y="156.14" width="1" height="197.31"></rect><rect x="329.62" y="156.14" width="1" height="197.31"></rect><rect x="339.93" y="156.14" width="1" height="197.31"></rect><rect x="350.24" y="175.77" width="1" height="177.68"></rect><rect x="360.54" y="175.77" width="1" height="177.68"></rect><rect x="370.85" y="175.77" width="1" height="177.68"></rect><rect x="96" y="108.52" width="64.3" height="1"></rect><rect x="96" y="121.28" width="64.3" height="1"></rect><rect x="96" y="134.04" width="64.3" height="1"></rect><rect x="96" y="146.8" width="64.3" height="1"></rect><rect x="96" y="159.56" width="64.3" height="1"></rect><rect x="96" y="172.32" width="64.3" height="1"></rect><rect x="96" y="185.09" width="64.3" height="1"></rect><rect x="96" y="197.85" width="64.3" height="1"></rect><rect x="96" y="210.61" width="64.3" height="1"></rect><rect x="96" y="223.37" width="64.3" height="1"></rect><rect x="96" y="236.13" width="64.3" height="1"></rect><rect x="96" y="248.89" width="64.3" height="1"></rect><rect x="96" y="261.66" width="64.3" height="1"></rect><rect x="96" y="274.42" width="64.3" height="1"></rect><rect x="96" y="287.18" width="64.3" height="1"></rect><rect x="96" y="299.94" width="64.3" height="1"></rect><rect x="96" y="312.7" width="64.3" height="1"></rect><rect x="96" y="325.46" width="64.3" height="1"></rect><rect x="96" y="338.22" width="64.3" height="1"></rect><rect x="96" y="350.99" width="64.3" height="1"></rect><rect x="96" y="363.75" width="64.3" height="1"></rect><rect x="103.84" y="89.87" width="1" height="277.32"></rect><polygon points="560.82 151.73 546.09 151.73 546.09 150.73 559.82 150.73 559.82 144.86 546.09 144.86 546.09 143.86 560.82 143.86 560.82 151.73"></polygon><polygon points="629.04 228.79 612.34 228.79 612.34 220.92 629.04 220.92 629.04 221.92 613.34 221.92 613.34 227.79 629.04 227.79 629.04 228.79"></polygon><polygon points="629.04 244.99 612.34 244.99 612.34 237.11 629.04 237.11 629.04 238.11 613.34 238.11 613.34 243.99 629.04 243.99 629.04 244.99"></polygon><polygon points="629.04 261.18 612.34 261.18 612.34 253.31 629.04 253.31 629.04 254.31 613.34 254.31 613.34 260.18 629.04 260.18 629.04 261.18"></polygon><polygon points="629.04 277.38 612.34 277.38 612.34 269.51 629.04 269.51 629.04 270.51 613.34 270.51 613.34 276.38 629.04 276.38 629.04 277.38"></polygon><polygon points="629.04 293.58 612.34 293.58 612.34 285.7 629.04 285.7 629.04 286.7 613.34 286.7 613.34 292.58 629.04 292.58 629.04 293.58"></polygon><polygon points="629.04 309.77 612.34 309.77 612.34 301.9 629.04 301.9 629.04 302.9 613.34 302.9 613.34 308.77 629.04 308.77 629.04 309.77"></polygon><polygon points="629.04 325.97 612.34 325.97 612.34 318.1 629.04 318.1 629.04 319.1 613.34 319.1 613.34 324.97 629.04 324.97 629.04 325.97"></polygon><polygon points="629.04 342.17 612.34 342.17 612.34 334.3 629.04 334.3 629.04 335.3 613.34 335.3 613.34 341.17 629.04 341.17 629.04 342.17"></polygon><polygon points="560.82 170.38 546.09 170.38 546.09 169.38 559.82 169.38 559.82 163.51 546.09 163.51 546.09 162.51 560.82 162.51 560.82 170.38"></polygon><polygon points="560.82 189.03 546.09 189.03 546.09 188.03 559.82 188.03 559.82 182.16 546.09 182.16 546.09 181.16 560.82 181.16 560.82 189.03"></polygon><polygon points="560.82 207.68 546.09 207.68 546.09 206.68 559.82 206.68 559.82 200.81 546.09 200.81 546.09 199.81 560.82 199.81 560.82 207.68"></polygon><polygon points="560.82 226.33 546.09 226.33 546.09 225.33 559.82 225.33 559.82 219.46 546.09 219.46 546.09 218.46 560.82 218.46 560.82 226.33"></polygon><polygon points="560.82 244.99 546.09 244.99 546.09 243.99 559.82 243.99 559.82 238.11 546.09 238.11 546.09 237.11 560.82 237.11 560.82 244.99"></polygon><polygon points="560.82 263.64 546.09 263.64 546.09 262.64 559.82 262.64 559.82 256.76 546.09 256.76 546.09 255.76 560.82 255.76 560.82 263.64"></polygon><polygon points="560.82 282.29 546.09 282.29 546.09 281.29 559.82 281.29 559.82 275.42 546.09 275.42 546.09 274.42 560.82 274.42 560.82 282.29"></polygon><polygon points="560.82 300.94 546.09 300.94 546.09 299.94 559.82 299.94 559.82 294.07 546.09 294.07 546.09 293.07 560.82 293.07 560.82 300.94"></polygon><polygon points="560.82 319.59 546.09 319.59 546.09 318.59 559.82 318.59 559.82 312.72 546.09 312.72 546.09 311.72 560.82 311.72 560.82 319.59"></polygon><path d="M524,195.41H461.16v-6.89H524Zm-61.85-1H523v-4.89H462.16Z"></path><path d="M524,205.72H461.16v-6.89H524Zm-61.85-1H523v-4.89H462.16Z"></path><path d="M524,216H461.16v-6.89H524Zm-61.85-1H523v-4.89H462.16Z"></path><path d="M524,226.33H461.16v-6.89H524Zm-61.85-1H523v-4.89H462.16Z"></path><path d="M524,236.64H461.16v-6.89H524Zm-61.85-1H523v-4.89H462.16Z"></path><path d="M524,247H461.16v-6.89H524Zm-61.85-1H523v-4.89H462.16Z"></path><path d="M524,257.26H461.16v-6.89H524Zm-61.85-1H523v-4.89H462.16Z"></path><path d="M524,267.56H461.16v-6.89H524Zm-61.85-1H523v-4.89H462.16Z"></path><path d="M524,277.87H461.16V271H524Zm-61.85-1H523V272H462.16Z"></path><path d="M524,288.18H461.16v-6.89H524Zm-61.85-1H523v-4.89H462.16Z"></path><path d="M524,298.49H461.16V291.6H524Zm-61.85-1H523V292.6H462.16Z"></path><path d="M524,308.79H461.16V301.9H524Zm-61.85-1H523V302.9H462.16Z"></path><path d="M524,319.1H461.16v-6.89H524Zm-61.85-1H523v-4.89H462.16Z"></path><path d="M524,329.41H461.16v-6.89H524Zm-61.85-1H523v-4.89H462.16Z"></path><path d="M524,339.71H461.16v-6.88H524Zm-61.85-1H523v-4.88H462.16Z"></path><path d="M524,350H461.16v-6.89H524Zm-61.85-1H523v-4.89H462.16Z"></path><path d="M524,360.33H461.16v-6.89H524Zm-61.85-1H523v-4.89H462.16Z"></path><rect x="568.66" y="128.16" width="1" height="227.74"></rect><rect x="581.42" y="84.97" width="1" height="270.94"></rect><path d="M435.66,320.57H403.74V303.38h31.92Zm-30.92-1h29.92V304.38H404.74Z"></path><path d="M428.3,304.38H411.1V274.91h17.2Zm-16.2-1h15.2V275.91H412.1Z"></path><rect x="280.87" y="215.38" width="1" height="140.62"></rect><rect x="383.89" y="199.47" width="75.09" height="1"></rect><rect x="383.89" y="207.86" width="75.09" height="1"></rect><path d="M399.2,223.54H386.75v-9.39H399.2Zm-11.45-1H398.2v-7.39H387.75Z"></path><path d="M413.33,223.54H400.87v-9.39h12.46Zm-11.46-1h10.46v-7.39H401.87Z"></path><path d="M427.45,223.54H415v-9.39h12.45Zm-11.45-1h10.45v-7.39H416Z"></path><path d="M441.58,223.54H429.12v-9.39h12.46Zm-11.46-1h10.46v-7.39H430.12Z"></path><path d="M455.7,223.54H443.25v-9.39H455.7Zm-11.45-1H454.7v-7.39H444.25Z"></path><path d="M399.2,236.54H386.75v-9.39H399.2Zm-11.45-1H398.2v-7.39H387.75Z"></path><path d="M413.33,236.54H400.87v-9.39h12.46Zm-11.46-1h10.46v-7.39H401.87Z"></path><path d="M427.45,236.54H415v-9.39h12.45Zm-11.45-1h10.45v-7.39H416Z"></path><path d="M441.58,236.54H429.12v-9.39h12.46Zm-11.46-1h10.46v-7.39H430.12Z"></path><path d="M455.7,236.54H443.25v-9.39H455.7Zm-11.45-1H454.7v-7.39H444.25Z"></path><path d="M399.2,249.54H386.75v-9.39H399.2Zm-11.45-1H398.2v-7.39H387.75Z"></path><path d="M413.33,249.54H400.87v-9.39h12.46Zm-11.46-1h10.46v-7.39H401.87Z"></path><path d="M427.45,249.54H415v-9.39h12.45Zm-11.45-1h10.45v-7.39H416Z"></path><path d="M441.58,249.54H429.12v-9.39h12.46Zm-11.46-1h10.46v-7.39H430.12Z"></path><path d="M455.7,249.54H443.25v-9.39H455.7Zm-11.45-1H454.7v-7.39H444.25Z"></path><path d="M399.2,273H386.75v-9.39H399.2Zm-11.45-1H398.2v-7.39H387.75Z"></path><path d="M413.33,273H400.87v-9.39h12.46Zm-11.46-1h10.46v-7.39H401.87Z"></path><path d="M427.45,273H415v-9.39h12.45ZM416,272h10.45v-7.39H416Z"></path><path d="M441.58,273H429.12v-9.39h12.46Zm-11.46-1h10.46v-7.39H430.12Z"></path><path d="M455.7,273H443.25v-9.39H455.7Zm-11.45-1H454.7v-7.39H444.25Z"></path></g></g><g id="freepik--House--inject-200"><rect x="395.33" y="266.34" width="1.61" height="38.71" style="fill:#fff"></rect><path d="M397.44,305.55h-2.61V265.84h2.61Zm-1.61-1h.61V266.84h-.61Z" style="fill:#263238"></path><rect x="590.51" y="281.93" width="1.61" height="38.71" style="fill:#fff"></rect><path d="M592.63,321.15H590V281.43h2.62Zm-1.62-1h.62V282.43H591Z" style="fill:#263238"></path><rect x="464.16" y="284.08" width="124.74" height="50.54" style="fill:#fff"></rect><path d="M589.4,335.13H463.66V283.58H589.4Zm-124.74-1H588.4V284.58H464.66Z" style="fill:#263238"></path><rect x="464.16" y="284.08" width="124.74" height="4.84" style="fill:#263238"></rect><path d="M589.4,289.42H463.66v-5.84H589.4Zm-124.74-1H588.4v-3.84H464.66Z" style="fill:#263238"></path><polygon points="594.28 279.78 464.69 279.78 464.69 248.06 574.38 248.06 594.28 279.78" style="fill:#636363"></polygon><path d="M595.18,280.28h-131V247.56H574.66l.15.23Zm-130-1H593.37l-19.26-30.72H465.19Z" style="fill:#263238"></path><rect x="463.62" y="279.78" width="130.66" height="5.91" style="fill:#fff"></rect><path d="M594.78,286.2H463.12v-6.92H594.78Zm-130.66-1H593.78v-4.92H464.12Z" style="fill:#263238"></path><rect x="398.88" y="267.44" width="87.42" height="42.29" style="fill:#fff"></rect><path d="M486.8,310.23H398.38V266.94H486.8Zm-87.42-1H485.8V267.94H399.38Z" style="fill:#263238"></path><rect x="398.88" y="267.44" width="87.42" height="4.28" style="fill:#263238"></rect><path d="M486.8,272.22H398.38v-5.28H486.8Zm-87.42-1H485.8v-3.28H399.38Z" style="fill:#263238"></path><polygon points="441.57 224.34 394 260.12 489.15 260.12 441.57 224.34" style="fill:#fff"></polygon><path d="M490.65,260.62H392.5l49.07-36.91Zm-95.15-1h92.15L441.57,225Z" style="fill:#263238"></path><polygon points="441.57 229.22 403.73 257.68 479.42 257.68 441.57 229.22" style="fill:#636363"></polygon><path d="M480.92,258.18H402.23l39.34-29.59Zm-75.69-1h72.69l-36.35-27.34Z" style="fill:#263238"></path><rect x="329.35" y="326.81" width="5.69" height="66.12" style="fill:#fff"></rect><path d="M335.54,393.43h-6.69V326.3h6.69Zm-5.69-1h4.69V327.3h-4.69Z" style="fill:#263238"></path><rect x="343.17" y="326.81" width="263.49" height="65.93" style="fill:#fff"></rect><path d="M607.16,393.23H342.67V326.3H607.16Zm-263.49-1H606.16V327.3H343.67Z" style="fill:#263238"></path><rect x="343.17" y="326.81" width="263.49" height="7.28" style="fill:#263238"></rect><path d="M607.16,334.59H342.67V326.3H607.16Zm-263.49-1H606.16V327.3H343.67Z" style="fill:#263238"></path><polygon points="500.54 324.77 322.03 324.77 337.07 305.25 500.54 305.25 500.54 324.77" style="fill:#636363"></polygon><path d="M501,325.27H321l15.82-20.52H501Zm-178-1H500V305.75H337.32Z" style="fill:#263238"></path><rect x="322.03" y="324.77" width="145.16" height="4.07" style="fill:#fff"></rect><path d="M467.69,329.34H321.53v-5.07H467.69Zm-145.16-1H466.69v-3.07H322.53Z" style="fill:#263238"></path><rect x="459.47" y="324.77" width="147.2" height="67.96" style="fill:#fff"></rect><path d="M607.16,393.23H459v-69H607.16Zm-147.19-1H606.16v-67H460Z" style="fill:#263238"></path><rect x="463.25" y="328.71" width="139.63" height="64.02" style="fill:#636363"></rect><path d="M603.38,393.23H462.75v-65H603.38Zm-139.63-1H602.38v-63H463.75Z" style="fill:#263238"></path><rect x="474.92" y="337.78" width="116.29" height="54.95" style="fill:#fff"></rect><path d="M591.71,393.23H474.42v-56H591.71Zm-116.29-1H590.71v-54H475.42Z" style="fill:#263238"></path><path d="M504.21,365.88H478a.5.5,0,0,1-.5-.5V355a.5.5,0,0,1,.5-.5h26.26a.5.5,0,0,1,.5.5v10.36A.5.5,0,0,1,504.21,365.88Zm-25.76-1h25.26v-9.36H478.45Z" style="fill:#263238"></path><path d="M532.25,365.88H506a.51.51,0,0,1-.5-.5V355a.5.5,0,0,1,.5-.5h26.27a.5.5,0,0,1,.5.5v10.36A.51.51,0,0,1,532.25,365.88Zm-25.77-1h25.27v-9.36H506.48Z" style="fill:#263238"></path><path d="M504.21,378.25H478a.5.5,0,0,1-.5-.5V367.4a.5.5,0,0,1,.5-.5h26.26a.5.5,0,0,1,.5.5v10.35A.5.5,0,0,1,504.21,378.25Zm-25.76-1h25.26V367.9H478.45Z" style="fill:#263238"></path><path d="M532.25,378.25H506a.5.5,0,0,1-.5-.5V367.4a.5.5,0,0,1,.5-.5h26.27a.5.5,0,0,1,.5.5v10.35A.5.5,0,0,1,532.25,378.25Zm-25.77-1h25.27V367.9H506.48Z" style="fill:#263238"></path><path d="M504.21,390.62H478a.5.5,0,0,1-.5-.5V379.77a.5.5,0,0,1,.5-.5h26.26a.5.5,0,0,1,.5.5v10.35A.5.5,0,0,1,504.21,390.62Zm-25.76-1h25.26v-9.35H478.45Z" style="fill:#263238"></path><path d="M532.25,390.62H506a.5.5,0,0,1-.5-.5V379.77a.5.5,0,0,1,.5-.5h26.27a.5.5,0,0,1,.5.5v10.35A.5.5,0,0,1,532.25,390.62Zm-25.77-1h25.27v-9.35H506.48Z" style="fill:#263238"></path><path d="M560.28,365.88H534a.5.5,0,0,1-.5-.5V355a.5.5,0,0,1,.5-.5h26.26a.5.5,0,0,1,.5.5v10.36A.5.5,0,0,1,560.28,365.88Zm-25.76-1h25.26v-9.36H534.52Z" style="fill:#263238"></path><path d="M588.31,365.88H562.05a.51.51,0,0,1-.5-.5V355a.5.5,0,0,1,.5-.5h26.26a.5.5,0,0,1,.5.5v10.36A.5.5,0,0,1,588.31,365.88Zm-25.76-1h25.26v-9.36H562.55Z" style="fill:#263238"></path><path d="M560.28,378.25H534a.5.5,0,0,1-.5-.5V367.4a.5.5,0,0,1,.5-.5h26.26a.5.5,0,0,1,.5.5v10.35A.5.5,0,0,1,560.28,378.25Zm-25.76-1h25.26V367.9H534.52Z" style="fill:#263238"></path><path d="M588.31,378.25H562.05a.5.5,0,0,1-.5-.5V367.4a.5.5,0,0,1,.5-.5h26.26a.5.5,0,0,1,.5.5v10.35A.5.5,0,0,1,588.31,378.25Zm-25.76-1h25.26V367.9H562.55Z" style="fill:#263238"></path><path d="M560.28,390.62H534a.5.5,0,0,1-.5-.5V379.77a.5.5,0,0,1,.5-.5h26.26a.5.5,0,0,1,.5.5v10.35A.5.5,0,0,1,560.28,390.62Zm-25.76-1h25.26v-9.35H534.52Z" style="fill:#263238"></path><path d="M588.31,390.62H562.05a.5.5,0,0,1-.5-.5V379.77a.5.5,0,0,1,.5-.5h26.26a.5.5,0,0,1,.5.5v10.35A.5.5,0,0,1,588.31,390.62Zm-25.76-1h25.26v-9.35H562.55Z" style="fill:#263238"></path><polygon points="531.44 259.27 453.77 325.58 609.1 325.58 531.44 259.27" style="fill:#fff"></polygon><path d="M610.46,326.08h-158l79-67.46.32.27Zm-155.33-1H607.75l-76.31-65.15Z" style="fill:#263238"></path><polygon points="531.44 268.32 469.66 321.06 593.22 321.06 531.44 268.32" style="fill:#636363"></polygon><path d="M594.57,321.56H468.3l63.14-53.9.32.28Zm-123.56-1H591.86L531.44,269Z" style="fill:#263238"></path><rect x="394" y="260.12" width="96.37" height="7.73" style="fill:#fff"></rect><path d="M490.87,268.34H393.5v-8.72h97.37Zm-96.37-1h95.37v-6.72H394.5Z" style="fill:#263238"></path><rect x="413.92" y="269.88" width="56.93" height="32.94" style="fill:#636363"></rect><path d="M471.35,303.31H413.42V269.38h57.93Zm-56.93-1h55.93V270.38H414.42Z" style="fill:#263238"></path><rect x="422.06" y="269.88" width="40.66" height="32.94" style="fill:#fff"></rect><path d="M463.22,303.31H421.56V269.38h41.66Zm-40.66-1h39.66V270.38H422.56Z" style="fill:#263238"></path><polygon points="462.51 284.92 444.01 284.92 444.01 269.88 440.76 269.88 440.76 284.92 422.26 284.92 422.26 287.77 440.76 287.77 440.76 302.81 444.01 302.81 444.01 287.77 462.51 287.77 462.51 284.92" style="fill:#636363"></polygon><path d="M444.51,303.31h-4.25v-15h-18.5v-3.85h18.5v-15h4.25v15H463v3.85h-18.5Zm-3.25-1h2.25v-15H462v-1.85h-18.5v-15h-2.25v15h-18.5v1.85h18.5Z" style="fill:#263238"></path><rect x="355.37" y="341.44" width="56.93" height="40.66" style="fill:#636363"></rect><path d="M412.8,382.61H354.87V340.94H412.8Zm-56.93-1H411.8V341.94H355.87Z" style="fill:#263238"></path><rect x="363.5" y="341.44" width="40.66" height="40.66" style="fill:#fff"></rect><path d="M404.67,382.61H363V340.94h41.67Zm-40.67-1h39.67V341.94H364Z" style="fill:#263238"></path><polygon points="404.09 360.02 385.46 360.02 385.46 341.44 382.21 341.44 382.21 360.02 363.71 360.02 363.71 363.53 382.21 363.53 382.21 382.11 385.46 382.11 385.46 363.53 404.09 363.53 404.09 360.02" style="fill:#636363"></polygon><path d="M386,382.61h-4.25V364h-18.5v-4.51h18.5V340.94H386v18.58h18.63V364H386Zm-3.25-1H385V363h18.63v-2.51H385V341.94h-2.25v18.58h-18.5V363h18.5Z" style="fill:#263238"></path><rect x="430.6" y="342.26" width="21.96" height="50.01" style="fill:#636363"></rect><path d="M453.05,392.77H430.1v-51h22.95Zm-21.95-1h20.95v-49H431.1Z" style="fill:#263238"></path><rect x="434.26" y="345.38" width="14.64" height="38.76" style="fill:#fff"></rect><path d="M449.39,384.64H433.76V344.88h15.63Zm-14.63-1h13.63V345.88H434.76Z" style="fill:#263238"></path><rect x="477.65" y="343.48" width="3.83" height="2.16" style="fill:#636363"></rect><rect x="483.17" y="343.48" width="3.83" height="2.16" style="fill:#636363"></rect><rect x="477.65" y="346.82" width="3.83" height="2.71" style="fill:#636363"></rect><rect x="483.17" y="346.82" width="3.83" height="2.71" style="fill:#636363"></rect><rect x="492.08" y="343.48" width="3.83" height="2.16" style="fill:#636363"></rect><rect x="497.6" y="343.48" width="3.83" height="2.16" style="fill:#636363"></rect><rect x="492.08" y="346.82" width="3.83" height="2.71" style="fill:#636363"></rect><rect x="497.6" y="346.82" width="3.83" height="2.71" style="fill:#636363"></rect><rect x="506.5" y="343.48" width="3.83" height="2.16" style="fill:#636363"></rect><rect x="512.03" y="343.48" width="3.83" height="2.16" style="fill:#636363"></rect><rect x="506.5" y="346.82" width="3.83" height="2.71" style="fill:#636363"></rect><rect x="512.03" y="346.82" width="3.83" height="2.71" style="fill:#636363"></rect><rect x="520.93" y="343.48" width="3.83" height="2.16" style="fill:#636363"></rect><rect x="526.45" y="343.48" width="3.83" height="2.16" style="fill:#636363"></rect><rect x="520.93" y="346.82" width="3.83" height="2.71" style="fill:#636363"></rect><rect x="526.45" y="346.82" width="3.83" height="2.71" style="fill:#636363"></rect><rect x="535.36" y="343.48" width="3.83" height="2.16" style="fill:#636363"></rect><rect x="540.88" y="343.48" width="3.83" height="2.16" style="fill:#636363"></rect><rect x="535.36" y="346.82" width="3.83" height="2.71" style="fill:#636363"></rect><rect x="540.88" y="346.82" width="3.83" height="2.71" style="fill:#636363"></rect><rect x="549.78" y="343.48" width="3.83" height="2.16" style="fill:#636363"></rect><rect x="555.3" y="343.48" width="3.83" height="2.16" style="fill:#636363"></rect><rect x="549.78" y="346.82" width="3.83" height="2.71" style="fill:#636363"></rect><rect x="555.3" y="346.82" width="3.83" height="2.71" style="fill:#636363"></rect><rect x="564.21" y="343.48" width="3.83" height="2.16" style="fill:#636363"></rect><rect x="569.73" y="343.48" width="3.83" height="2.16" style="fill:#636363"></rect><rect x="564.21" y="346.82" width="3.83" height="2.71" style="fill:#636363"></rect><rect x="569.73" y="346.82" width="3.83" height="2.71" style="fill:#636363"></rect><rect x="578.63" y="343.48" width="3.83" height="2.16" style="fill:#636363"></rect><rect x="584.15" y="343.48" width="3.83" height="2.16" style="fill:#636363"></rect><rect x="578.63" y="346.82" width="3.83" height="2.71" style="fill:#636363"></rect><rect x="584.15" y="346.82" width="3.83" height="2.71" style="fill:#636363"></rect></g><g id="freepik--Water--inject-200"><rect x="36.78" y="364.04" width="657.95" height="114.57" style="fill:#407BFF"></rect></g><g id="freepik--Streetlights--inject-200"><path d="M244.28,199a1,1,0,0,1-.54-.17c-12.81-8.27-38.63-22-67.64-20.82a1,1,0,1,1-.08-2c29.57-1.18,55.79,12.74,68.8,21.15a1,1,0,0,1,.3,1.38A1,1,0,0,1,244.28,199Z" style="fill:#263238"></path><path d="M244,228.19a1,1,0,0,1-.92-.6c-10.19-23.36-45.74-42.72-46.1-42.92a1,1,0,0,1-.52-.88v-5.23a1,1,0,0,1,2,0v4.64c4.67,2.59,36.55,20.89,46.46,43.59a1,1,0,0,1-.52,1.32A1,1,0,0,1,244,228.19Z" style="fill:#263238"></path><path d="M219.28,199.61a1,1,0,0,1-1-1V185.54a1,1,0,0,1,2,0v13.07A1,1,0,0,1,219.28,199.61Z" style="fill:#263238"></path><ellipse cx="177.3" cy="180.67" rx="9.5" ry="4.75" style="fill:#fff"></ellipse><path d="M177.3,185.92c-5.61,0-10-2.3-10-5.25s4.39-5.25,10-5.25,10,2.31,10,5.25S182.91,185.92,177.3,185.92Zm0-9.5c-4.88,0-9,2-9,4.25s4.12,4.25,9,4.25,9-1.94,9-4.25S182.18,176.42,177.3,176.42Z" style="fill:#263238"></path><ellipse cx="177.3" cy="183.55" rx="7.56" ry="1.88" style="fill:#fff"></ellipse><path d="M177.3,185.92a14.68,14.68,0,0,1-7.83-2,.49.49,0,0,1,0-.83,16.62,16.62,0,0,1,15.66,0,.49.49,0,0,1,0,.83A14.68,14.68,0,0,1,177.3,185.92Zm-6.56-2.37a16.39,16.39,0,0,0,13.12,0,16.28,16.28,0,0,0-13.12,0Z" style="fill:#263238"></path><rect x="243.73" y="193.56" width="8.23" height="185.61" style="fill:#c2c2c2"></rect><path d="M252,379.67h-8.23a.5.5,0,0,1-.5-.5V193.56a.5.5,0,0,1,.5-.5H252a.5.5,0,0,1,.5.5V379.17A.5.5,0,0,1,252,379.67Zm-7.73-1h7.23V194.06h-7.23Z" style="fill:#263238"></path><rect x="243.32" y="224.84" width="8.24" height="3.96" style="fill:#263238"></rect><path d="M251.56,229.3h-8.24a.51.51,0,0,1-.5-.5v-4a.51.51,0,0,1,.5-.5h8.24a.5.5,0,0,1,.5.5v4A.5.5,0,0,1,251.56,229.3Zm-7.74-1h7.24v-3h-7.24Z" style="fill:#263238"></path><rect x="243.32" y="196.17" width="8.24" height="3.96" style="fill:#263238"></rect><path d="M251.56,200.62h-8.24a.5.5,0,0,1-.5-.5v-4a.5.5,0,0,1,.5-.5h8.24a.5.5,0,0,1,.5.5v4A.5.5,0,0,1,251.56,200.62Zm-7.74-1h7.24v-3h-7.24Z" style="fill:#263238"></path><path d="M262.55,379.67H230.72a.5.5,0,1,1,0-1h31.83a.5.5,0,0,1,0,1Z" style="fill:#263238"></path><path d="M620.08,199a1,1,0,0,1-.54-.17c-12.81-8.27-38.65-22-67.64-20.82a1,1,0,0,1-1-1,1,1,0,0,1,1-1c29.58-1.18,55.8,12.74,68.81,21.15a1,1,0,0,1,.29,1.38A1,1,0,0,1,620.08,199Z" style="fill:#263238"></path><path d="M619.85,228.19a1,1,0,0,1-.92-.6c-10.2-23.36-45.74-42.72-46.1-42.92a1,1,0,0,1-.53-.88v-5.23a1,1,0,1,1,2,0v4.64c4.68,2.59,36.55,20.89,46.46,43.59a1,1,0,0,1-.51,1.32A1,1,0,0,1,619.85,228.19Z" style="fill:#263238"></path><path d="M595.09,199.61a1,1,0,0,1-1-1V185.54a1,1,0,1,1,2,0v13.07A1,1,0,0,1,595.09,199.61Z" style="fill:#263238"></path><ellipse cx="553.11" cy="180.67" rx="9.5" ry="4.75" style="fill:#fff"></ellipse><path d="M553.11,185.92c-5.61,0-10-2.3-10-5.25s4.4-5.25,10-5.25,10,2.31,10,5.25S558.72,185.92,553.11,185.92Zm0-9.5c-4.88,0-9,2-9,4.25s4.13,4.25,9,4.25,9-1.94,9-4.25S558,176.42,553.11,176.42Z" style="fill:#263238"></path><ellipse cx="553.11" cy="183.55" rx="7.56" ry="1.88" style="fill:#fff"></ellipse><path d="M553.11,185.92a14.66,14.66,0,0,1-7.83-2,.49.49,0,0,1,0-.83,16.62,16.62,0,0,1,15.66,0,.5.5,0,0,1,0,.83A14.68,14.68,0,0,1,553.11,185.92Zm-6.56-2.37a16.39,16.39,0,0,0,13.12,0,16.28,16.28,0,0,0-13.12,0Z" style="fill:#263238"></path><rect x="619.53" y="193.56" width="8.23" height="185.61" style="fill:#c2c2c2"></rect><path d="M627.76,379.67h-8.23a.5.5,0,0,1-.5-.5V193.56a.51.51,0,0,1,.5-.5h8.23a.5.5,0,0,1,.5.5V379.17A.5.5,0,0,1,627.76,379.67Zm-7.73-1h7.23V194.06H620Z" style="fill:#263238"></path><rect x="619.13" y="224.84" width="8.24" height="3.96" style="fill:#263238"></rect><path d="M627.37,229.3h-8.24a.5.5,0,0,1-.5-.5v-4a.5.5,0,0,1,.5-.5h8.24a.5.5,0,0,1,.5.5v4A.5.5,0,0,1,627.37,229.3Zm-7.74-1h7.24v-3h-7.24Z" style="fill:#263238"></path><rect x="619.13" y="196.17" width="8.24" height="3.96" style="fill:#263238"></rect><path d="M627.37,200.62h-8.24a.5.5,0,0,1-.5-.5v-4a.5.5,0,0,1,.5-.5h8.24a.5.5,0,0,1,.5.5v4A.5.5,0,0,1,627.37,200.62Zm-7.74-1h7.24v-3h-7.24Z" style="fill:#263238"></path><path d="M638.82,379.67H607a.5.5,0,0,1,0-1h31.83a.5.5,0,0,1,0,1Z" style="fill:#263238"></path></g><g id="freepik--Trees--inject-200"><path d="M205.88,313.74c0,17.65-10.44,32-23.33,32s-23.32-14.31-23.32-32,10.44-78.34,23.32-78.34S205.88,296.08,205.88,313.74Z" style="fill:#407BFF"></path><polygon points="195.63 322.97 188.57 325.58 189.99 321.33 186.61 326.31 183.24 327.56 183 313.59 195.27 297.29 188.69 303.87 189.81 299.3 186.66 305.9 182.93 309.63 182.55 287.82 181.22 319.63 169.59 307.31 175.98 315.99 169.95 315.32 177.39 317.92 181.08 322.93 180.44 338.27 176.15 335.36 180.3 341.44 178.33 383.77 184.29 383.77 183.28 329.78 195.63 322.97" style="fill:#263238"></polygon><path d="M195.39,287.89a6,6,0,0,1-1,3.71,5.89,5.89,0,0,1-3.28,2,5.05,5.05,0,0,1,4.24-5.69Z" style="fill:#fff"></path><path d="M202.42,297.76a5.08,5.08,0,0,1-4.24,5.7,5.06,5.06,0,0,1,4.24-5.7Z" style="fill:#fff"></path><path d="M202.41,317a5.87,5.87,0,0,1-2.15,3.17,5.93,5.93,0,0,1-3.76.76,5.07,5.07,0,0,1,5.91-3.93Z" style="fill:#fff"></path><path d="M163.8,317a5.07,5.07,0,0,0,5.92,3.93A5.09,5.09,0,0,0,163.8,317Z" style="fill:#fff"></path><path d="M194.29,309a5.06,5.06,0,0,1-4.24,5.7,5.08,5.08,0,0,1,4.24-5.7Z" style="fill:#fff"></path><path d="M192.47,277.14a5.06,5.06,0,0,1-4.24,5.7,5.08,5.08,0,0,1,4.24-5.7Z" style="fill:#fff"></path><path d="M188.28,285.34A5.05,5.05,0,0,1,184,291a6,6,0,0,1,1-3.71A5.89,5.89,0,0,1,188.28,285.34Z" style="fill:#fff"></path><path d="M198.23,279.37a5.09,5.09,0,0,1-4.24,5.7,5.06,5.06,0,0,1,4.24-5.7Z" style="fill:#fff"></path><path d="M165.91,279.37a5.09,5.09,0,0,0,4.25,5.7,5.07,5.07,0,0,0-4.25-5.7Z" style="fill:#fff"></path><path d="M193.38,267.12a5.06,5.06,0,0,1-4.24,5.7,5.08,5.08,0,0,1,4.24-5.7Z" style="fill:#fff"></path><path d="M191.33,256.48a6,6,0,0,1,0,3.84,5.88,5.88,0,0,1-2.68,2.74,5.06,5.06,0,0,1,2.68-6.58Z" style="fill:#fff"></path><path d="M176.57,253.7a5.07,5.07,0,0,1,2.43,6.68,5.07,5.07,0,0,1-2.43-6.68Z" style="fill:#fff"></path><path d="M183.45,266.43a5.06,5.06,0,0,1-.41,7.09,5.08,5.08,0,0,1,.41-7.09Z" style="fill:#fff"></path><path d="M183.09,247.48a5.07,5.07,0,0,1-.41,7.1,5.07,5.07,0,0,1,.41-7.1Z" style="fill:#fff"></path><path d="M167.65,287.89a5.07,5.07,0,0,0,4.24,5.69,5.05,5.05,0,0,0-4.24-5.69Z" style="fill:#fff"></path><path d="M163.64,299.54a5.07,5.07,0,0,0,4.25,5.7,5.07,5.07,0,0,0-4.25-5.7Z" style="fill:#fff"></path><path d="M174.28,303.77a5.08,5.08,0,0,0,4.24,5.7,5.07,5.07,0,0,0-4.24-5.7Z" style="fill:#fff"></path><path d="M177.19,287.62a5.07,5.07,0,0,0,2.43,6.68,5.07,5.07,0,0,0-2.43-6.68Z" style="fill:#fff"></path><path d="M169.66,330.6a5.08,5.08,0,0,0,5.33-4.69,5,5,0,0,0-5.33,4.69Z" style="fill:#fff"></path><path d="M190.32,328.25a5.07,5.07,0,0,0,6,3.74,5.06,5.06,0,0,0-6-3.74Z" style="fill:#fff"></path><path d="M172.06,277.14a5.06,5.06,0,0,0,4.24,5.7,5.08,5.08,0,0,0-4.24-5.7Z" style="fill:#fff"></path><path d="M172,267.67a5.08,5.08,0,0,0,4.24,5.7,5.06,5.06,0,0,0-4.24-5.7Z" style="fill:#fff"></path><path d="M374.76,325.31c0,17.65-10.45,32-23.33,32s-23.32-14.32-23.32-32S338.55,247,351.43,247,374.76,307.66,374.76,325.31Z" style="fill:#407BFF"></path><polygon points="364.51 334.55 357.45 337.16 358.87 332.91 355.49 337.88 352.12 339.13 351.88 325.17 364.15 308.87 357.57 315.44 358.68 310.87 355.54 317.48 351.81 321.2 351.43 299.39 350.1 331.21 338.47 318.88 344.85 327.57 338.83 326.9 346.27 329.49 349.96 334.5 349.31 349.84 345.02 346.93 349.18 353.02 347.21 395.34 353.17 395.34 352.15 341.36 364.51 334.55" style="fill:#263238"></polygon><path d="M364.26,299.46a5.06,5.06,0,0,1-4.24,5.7,5.08,5.08,0,0,1,4.24-5.7Z" style="fill:#fff"></path><path d="M371.3,309.34a5.09,5.09,0,0,1-4.25,5.7,5.07,5.07,0,0,1,4.25-5.7Z" style="fill:#fff"></path><path d="M371.29,328.57a5.07,5.07,0,0,1-5.91,3.94,5.07,5.07,0,0,1,5.91-3.94Z" style="fill:#fff"></path><path d="M332.68,328.57a5.07,5.07,0,0,0,5.91,3.94,5.07,5.07,0,0,0-5.91-3.94Z" style="fill:#fff"></path><path d="M363.17,320.59a5.05,5.05,0,0,1-4.24,5.69,5.89,5.89,0,0,1,1-3.71A6,6,0,0,1,363.17,320.59Z" style="fill:#fff"></path><path d="M361.35,288.71a5.08,5.08,0,0,1-4.24,5.7,5.07,5.07,0,0,1,4.24-5.7Z" style="fill:#fff"></path><path d="M357.16,296.91a5.06,5.06,0,0,1-4.24,5.7,5.08,5.08,0,0,1,4.24-5.7Z" style="fill:#fff"></path><path d="M367.11,290.94a5.07,5.07,0,0,1-4.25,5.7,5.07,5.07,0,0,1,4.25-5.7Z" style="fill:#fff"></path><path d="M334.79,290.94a5.08,5.08,0,0,0,4.24,5.7,5.06,5.06,0,0,0-4.24-5.7Z" style="fill:#fff"></path><path d="M362.26,278.7a5.05,5.05,0,0,1-4.24,5.69,5.05,5.05,0,0,1,4.24-5.69Z" style="fill:#fff"></path><path d="M360.2,268.06a5.07,5.07,0,0,1-2.67,6.58,5.06,5.06,0,0,1,2.67-6.58Z" style="fill:#fff"></path><path d="M345.45,265.28a5,5,0,0,1,2.42,6.67,5.07,5.07,0,0,1-2.42-6.67Z" style="fill:#fff"></path><path d="M352.33,278a5.05,5.05,0,0,1-.41,7.09,5.08,5.08,0,0,1,.41-7.09Z" style="fill:#fff"></path><path d="M352,259.06a5.08,5.08,0,0,1-.41,7.09,5.05,5.05,0,0,1,.41-7.09Z" style="fill:#fff"></path><path d="M336.53,299.46a5.06,5.06,0,0,0,4.24,5.7,5.08,5.08,0,0,0-4.24-5.7Z" style="fill:#fff"></path><path d="M332.52,311.12a5.07,5.07,0,0,0,4.24,5.69,5.05,5.05,0,0,0-4.24-5.69Z" style="fill:#fff"></path><path d="M343.16,315.35a5.06,5.06,0,0,0,4.24,5.7,5.08,5.08,0,0,0-4.24-5.7Z" style="fill:#fff"></path><path d="M346.06,299.2a5.08,5.08,0,0,0,2.44,6.67,5.06,5.06,0,0,0-2.44-6.67Z" style="fill:#fff"></path><path d="M338.53,342.18a6,6,0,0,0,3.63-1.26,6,6,0,0,0,1.7-3.44,5.08,5.08,0,0,0-5.33,4.7Z" style="fill:#fff"></path><path d="M359.2,339.82a5.07,5.07,0,0,0,6,3.75,5.07,5.07,0,0,0-6-3.75Z" style="fill:#fff"></path><path d="M340.94,288.71a5.06,5.06,0,0,0,4.24,5.7,5.09,5.09,0,0,0-4.24-5.7Z" style="fill:#fff"></path><path d="M340.9,279.24a5.06,5.06,0,0,0,4.24,5.7,5.06,5.06,0,0,0-4.24-5.7Z" style="fill:#fff"></path><path d="M666.07,317.09c0,17.65-10.44,32-23.32,32s-23.33-14.32-23.33-32,10.44-78.33,23.33-78.33S666.07,299.43,666.07,317.09Z" style="fill:#407BFF"></path><polygon points="655.83 326.33 648.76 328.94 650.18 324.69 646.8 329.66 643.43 330.91 643.19 316.95 655.46 300.64 648.88 307.22 650 302.65 646.85 309.25 643.12 312.98 642.75 291.17 641.41 322.99 629.78 310.66 636.17 319.35 630.14 318.68 637.59 321.27 641.27 326.28 640.63 341.62 636.34 338.71 640.49 344.8 638.52 387.12 644.48 387.12 643.47 333.14 655.83 326.33" style="fill:#263238"></polygon><path d="M655.58,291.24a5.08,5.08,0,0,1-4.24,5.7,5.06,5.06,0,0,1,4.24-5.7Z" style="fill:#fff"></path><path d="M662.61,301.12a5.07,5.07,0,0,1-4.24,5.69,5.05,5.05,0,0,1,4.24-5.69Z" style="fill:#fff"></path><path d="M662.61,320.35a5.07,5.07,0,0,1-5.92,3.94,5.08,5.08,0,0,1,5.92-3.94Z" style="fill:#fff"></path><path d="M624,320.35a5.08,5.08,0,0,0,5.92,3.94,5.07,5.07,0,0,0-5.92-3.94Z" style="fill:#fff"></path><path d="M654.49,312.37a6,6,0,0,1-1,3.71,5.9,5.9,0,0,1-3.29,2,6,6,0,0,1,1-3.71A5.9,5.9,0,0,1,654.49,312.37Z" style="fill:#fff"></path><path d="M652.66,280.49a5.06,5.06,0,0,1-4.24,5.7,5.08,5.08,0,0,1,4.24-5.7Z" style="fill:#fff"></path><path d="M648.48,288.69a5.07,5.07,0,0,1-4.25,5.7,5.07,5.07,0,0,1,4.25-5.7Z" style="fill:#fff"></path><path d="M658.42,282.72a5.08,5.08,0,0,1-4.24,5.7,5.06,5.06,0,0,1,4.24-5.7Z" style="fill:#fff"></path><path d="M626.1,282.72a5.07,5.07,0,0,0,4.25,5.7,5.07,5.07,0,0,0-4.25-5.7Z" style="fill:#fff"></path><path d="M653.58,270.48a6,6,0,0,1-1,3.71,5.9,5.9,0,0,1-3.29,2,6,6,0,0,1,1-3.71A5.9,5.9,0,0,1,653.58,270.48Z" style="fill:#fff"></path><path d="M651.52,259.84a5.07,5.07,0,0,1-2.68,6.58,5.06,5.06,0,0,1,2.68-6.58Z" style="fill:#fff"></path><path d="M636.77,257.06a5.07,5.07,0,0,1,2.42,6.67,5,5,0,0,1-2.42-6.67Z" style="fill:#fff"></path><path d="M643.64,269.78a5.07,5.07,0,0,1-.4,7.09,5.07,5.07,0,0,1,.4-7.09Z" style="fill:#fff"></path><path d="M643.28,250.84a5.05,5.05,0,0,1-.41,7.09,5.08,5.08,0,0,1,.41-7.09Z" style="fill:#fff"></path><path d="M627.84,291.24a5.08,5.08,0,0,0,4.24,5.7,5.06,5.06,0,0,0-4.24-5.7Z" style="fill:#fff"></path><path d="M623.83,302.9a6,6,0,0,0,1,3.71,5.9,5.9,0,0,0,3.29,2,6,6,0,0,0-1-3.71A5.9,5.9,0,0,0,623.83,302.9Z" style="fill:#fff"></path><path d="M634.47,307.13a5.09,5.09,0,0,0,4.24,5.7,5.06,5.06,0,0,0-4.24-5.7Z" style="fill:#fff"></path><path d="M637.38,291a5.06,5.06,0,0,0,2.43,6.67,5.06,5.06,0,0,0-2.43-6.67Z" style="fill:#fff"></path><path d="M629.85,334a5.06,5.06,0,0,0,5.33-4.69,5.07,5.07,0,0,0-5.33,4.69Z" style="fill:#fff"></path><path d="M650.51,331.6a5.05,5.05,0,0,0,6,3.74,5.07,5.07,0,0,0-6-3.74Z" style="fill:#fff"></path><path d="M632.25,280.49a5.08,5.08,0,0,0,4.24,5.7,5.06,5.06,0,0,0-4.24-5.7Z" style="fill:#fff"></path><path d="M632.21,271a5.07,5.07,0,0,0,4.25,5.7,5.07,5.07,0,0,0-4.25-5.7Z" style="fill:#fff"></path><path d="M155.28,277.63c0,28.26-16.72,51.17-37.34,51.17s-37.35-22.91-37.35-51.17,16.72-125.39,37.35-125.39S155.28,249.37,155.28,277.63Z" style="fill:#407BFF"></path><polygon points="138.87 292.42 127.57 296.6 129.84 289.79 124.43 297.76 119.03 299.76 118.65 277.4 138.29 251.31 127.76 261.83 129.54 254.51 124.51 265.09 118.54 271.06 117.94 236.14 115.8 287.07 97.18 267.34 107.41 281.24 97.76 280.17 109.67 284.33 115.57 292.35 114.54 316.9 107.68 312.24 114.33 321.98 111.17 389.74 120.71 389.74 119.09 303.32 138.87 292.42" style="fill:#263238"></polygon><path d="M138.48,236.25a8.11,8.11,0,0,1-6.79,9.12,8.11,8.11,0,0,1,6.79-9.12Z" style="fill:#fff"></path><path d="M149.73,252.06a8.11,8.11,0,0,1-6.79,9.12,8.13,8.13,0,0,1,6.79-9.12Z" style="fill:#fff"></path><path d="M149.73,282.85a8.11,8.11,0,0,1-9.47,6.3,8.13,8.13,0,0,1,9.47-6.3Z" style="fill:#fff"></path><path d="M87.92,282.85a9.54,9.54,0,0,0,3.44,5.09,9.51,9.51,0,0,0,6,1.21,9.53,9.53,0,0,0-3.44-5.08A9.55,9.55,0,0,0,87.92,282.85Z" style="fill:#fff"></path><path d="M136.73,270.07a8.11,8.11,0,0,1-6.79,9.12,8.11,8.11,0,0,1,6.79-9.12Z" style="fill:#fff"></path><path d="M133.81,219.05a8.11,8.11,0,0,1-6.79,9.12,8.11,8.11,0,0,1,6.79-9.12Z" style="fill:#fff"></path><path d="M127.11,232.17a8.11,8.11,0,0,1-6.79,9.12,8.11,8.11,0,0,1,6.79-9.12Z" style="fill:#fff"></path><path d="M143,222.62a8.11,8.11,0,0,1-6.79,9.12,8.11,8.11,0,0,1,6.79-9.12Z" style="fill:#fff"></path><path d="M91.3,222.62a8.11,8.11,0,0,0,6.79,9.12,8.11,8.11,0,0,0-6.79-9.12Z" style="fill:#fff"></path><path d="M135.27,203a8.11,8.11,0,0,1-6.79,9.12,8.13,8.13,0,0,1,6.79-9.12Z" style="fill:#fff"></path><path d="M132,186a8.11,8.11,0,0,1-4.29,10.53A8.11,8.11,0,0,1,132,186Z" style="fill:#fff"></path><path d="M108.36,181.53a8.1,8.1,0,0,1,3.88,10.69,8.1,8.1,0,0,1-3.88-10.69Z" style="fill:#fff"></path><path d="M119.37,201.9a8.1,8.1,0,0,1-.65,11.35,8.13,8.13,0,0,1,.65-11.35Z" style="fill:#fff"></path><path d="M118.79,171.58a8.1,8.1,0,0,1-.65,11.35,8.1,8.1,0,0,1,.65-11.35Z" style="fill:#fff"></path><path d="M94.08,236.25a8.11,8.11,0,0,0,6.79,9.12,8.11,8.11,0,0,0-6.79-9.12Z" style="fill:#fff"></path><path d="M87.66,254.91A8.11,8.11,0,0,0,94.45,264a8.11,8.11,0,0,0-6.79-9.12Z" style="fill:#fff"></path><path d="M104.69,261.69a8.13,8.13,0,0,0,6.79,9.12,8.11,8.11,0,0,0-6.79-9.12Z" style="fill:#fff"></path><path d="M109.34,235.83a8.12,8.12,0,0,0,3.9,10.68,8.1,8.1,0,0,0-3.9-10.68Z" style="fill:#fff"></path><path d="M97.29,304.63a8.11,8.11,0,0,0,8.53-7.52,8.13,8.13,0,0,0-8.53,7.52Z" style="fill:#fff"></path><path d="M130.37,300.86a8.1,8.1,0,0,0,9.66,6,8.1,8.1,0,0,0-9.66-6Z" style="fill:#fff"></path><path d="M101.13,219.05a8.11,8.11,0,0,0,6.79,9.12,8.11,8.11,0,0,0-6.79-9.12Z" style="fill:#fff"></path><path d="M101.07,203.89a8.11,8.11,0,0,0,6.79,9.12,8.11,8.11,0,0,0-6.79-9.12Z" style="fill:#fff"></path></g><g id="freepik--traffic-light--inject-200"><rect x="287.01" y="307.66" width="6.48" height="71.51" style="fill:#263238"></rect><path d="M293.49,379.67H287a.5.5,0,0,1-.5-.5V307.66a.5.5,0,0,1,.5-.5h6.48a.5.5,0,0,1,.5.5v71.51A.5.5,0,0,1,293.49,379.67Zm-6-1H293V308.16h-5.48Z" style="fill:#263238"></path><rect x="278.69" y="242.09" width="22.39" height="66.89" style="fill:#263238"></rect><path d="M301.08,309.48H278.69a.51.51,0,0,1-.5-.5V242.09a.5.5,0,0,1,.5-.5h22.39a.5.5,0,0,1,.5.5V309A.5.5,0,0,1,301.08,309.48Zm-21.89-1h21.39V242.59H279.19Z" style="fill:#263238"></path><circle cx="289.89" cy="256.11" r="8.33" style="fill:#707070"></circle><path d="M289.89,265a8.84,8.84,0,1,1,8.83-8.83A8.85,8.85,0,0,1,289.89,265Zm0-16.67a7.84,7.84,0,1,0,7.83,7.84A7.85,7.85,0,0,0,289.89,248.28Z" style="fill:#263238"></path><circle cx="289.89" cy="276.79" r="8.33" transform="translate(-80.2 430.7) rotate(-66.26)" style="fill:#707070"></circle><path d="M289.89,285.63a8.84,8.84,0,1,1,8.83-8.84A8.85,8.85,0,0,1,289.89,285.63Zm0-16.67a7.84,7.84,0,1,0,7.83,7.83A7.85,7.85,0,0,0,289.89,269Z" style="fill:#263238"></path><circle cx="289.89" cy="297.47" r="8.33" transform="translate(-44.96 51.7) rotate(-9.46)" style="fill:#707070"></circle><path d="M289.89,306.31a8.84,8.84,0,1,1,8.83-8.84A8.85,8.85,0,0,1,289.89,306.31Zm0-16.67a7.84,7.84,0,1,0,7.83,7.83A7.85,7.85,0,0,0,289.89,289.64Z" style="fill:#263238"></path><path d="M300.29,248.4h9.87a46.69,46.69,0,0,1-2.78,4.63c-1.85,2.78-7.09,4.32-7.09,4.32Z" style="fill:#263238"></path><path d="M300.29,257.85a.45.45,0,0,1-.3-.1.48.48,0,0,1-.2-.4v-9a.5.5,0,0,1,.5-.5h9.87a.5.5,0,0,1,.43.24.48.48,0,0,1,0,.48,48.47,48.47,0,0,1-2.81,4.69c-1.93,2.89-7.15,4.45-7.37,4.52Zm.5-9v7.76c1.42-.5,4.82-1.87,6.18-3.91,1.14-1.71,1.93-3.07,2.36-3.85Z" style="fill:#263238"></path><path d="M300.29,269.39h9.87a46.69,46.69,0,0,1-2.78,4.63c-1.85,2.77-7.09,4.32-7.09,4.32Z" style="fill:#263238"></path><path d="M300.29,278.84a.51.51,0,0,1-.3-.1.49.49,0,0,1-.2-.4v-8.95a.5.5,0,0,1,.5-.5h9.87a.49.49,0,0,1,.45.72,47.74,47.74,0,0,1-2.81,4.68c-1.93,2.9-7.15,4.46-7.37,4.53Zm.5-8.95v7.76c1.42-.51,4.82-1.87,6.18-3.91,1.14-1.71,1.93-3.07,2.36-3.85Z" style="fill:#263238"></path><path d="M300.29,290.38h9.87a46.69,46.69,0,0,1-2.78,4.63c-1.85,2.77-7.09,4.32-7.09,4.32Z" style="fill:#263238"></path><path d="M300.29,299.83a.51.51,0,0,1-.3-.1.51.51,0,0,1-.2-.4v-8.95a.5.5,0,0,1,.5-.5h9.87a.51.51,0,0,1,.43.23.5.5,0,0,1,0,.49,47.74,47.74,0,0,1-2.81,4.68c-1.93,2.9-7.15,4.46-7.37,4.53Zm.5-8.95v7.75c1.42-.5,4.82-1.87,6.18-3.9,1.14-1.71,1.93-3.07,2.36-3.85Z" style="fill:#263238"></path><path d="M280.22,248.4h-9.87a47.56,47.56,0,0,0,2.77,4.63c1.86,2.78,7.1,4.32,7.1,4.32Z" style="fill:#263238"></path><path d="M280.22,257.85l-.14,0c-.22-.07-5.44-1.63-7.37-4.52a48.47,48.47,0,0,1-2.81-4.69.48.48,0,0,1,0-.48.5.5,0,0,1,.43-.24h9.87a.5.5,0,0,1,.5.5v9a.48.48,0,0,1-.2.4A.47.47,0,0,1,280.22,257.85Zm-9-9c.43.78,1.22,2.14,2.36,3.85,1.36,2,4.76,3.41,6.18,3.91V248.9Z" style="fill:#263238"></path><path d="M280.22,269.39h-9.87a47.56,47.56,0,0,0,2.77,4.63c1.86,2.77,7.1,4.32,7.1,4.32Z" style="fill:#263238"></path><path d="M280.22,278.84l-.14,0c-.22-.07-5.44-1.63-7.37-4.53a47.74,47.74,0,0,1-2.81-4.68.49.49,0,0,1,.45-.72h9.87a.5.5,0,0,1,.5.5v8.95a.49.49,0,0,1-.2.4A.54.54,0,0,1,280.22,278.84Zm-9-8.95c.43.78,1.22,2.14,2.36,3.85,1.36,2,4.76,3.4,6.18,3.91v-7.76Z" style="fill:#263238"></path><path d="M280.22,290.38h-9.87a47.56,47.56,0,0,0,2.77,4.63c1.86,2.77,7.1,4.32,7.1,4.32Z" style="fill:#263238"></path><path d="M280.22,299.83l-.14,0c-.22-.07-5.44-1.63-7.37-4.53a47.74,47.74,0,0,1-2.81-4.68.5.5,0,0,1,0-.49.51.51,0,0,1,.43-.23h9.87a.5.5,0,0,1,.5.5v8.95a.51.51,0,0,1-.2.4A.54.54,0,0,1,280.22,299.83Zm-9-8.95c.43.78,1.22,2.14,2.36,3.85,1.36,2,4.76,3.4,6.18,3.91v-7.76Z" style="fill:#263238"></path><path d="M307,379.67H275.16a.5.5,0,0,1,0-1H307a.5.5,0,0,1,0,1Z" style="fill:#263238"></path></g><g id="freepik--car-2--inject-200"><polygon points="589.32 435.59 590.76 416.64 371.8 399.92 369.24 433.41 397.81 435.59 589.32 435.59" style="fill:#263238"></polygon><path d="M589.32,436.09H397.81l-28.61-2.18a.51.51,0,0,1-.34-.17.57.57,0,0,1-.12-.37l2.56-33.49a.51.51,0,0,1,.17-.34.55.55,0,0,1,.37-.12l219,16.72a.54.54,0,0,1,.34.18.48.48,0,0,1,.12.36l-1.45,18.95A.49.49,0,0,1,589.32,436.09ZM369.78,433l28.07,2.14h191l1.38-18-218-16.64Z" style="fill:#263238"></path><path d="M369.24,433.41s-1-23.5,22.92-21.67c17.87,1.36,22.64,16.36,23.91,23.85H538.29c3.73-5.19,9.54-9.81,18.25-9.14a23.25,23.25,0,0,1,17.29,9.14h42.42l.21-2.72L611,431.53l1.48-19.3L577.91,405l-27.55-26.75-78.11-6.28-51,21.69c-38.15-.76-67.56,9-67.56,9-3.94,3.09-3.44,8.67-3.44,8.67l-4.81,2.41-.46,6.13L350.55,432Z" style="fill:#c2c2c2"></path><path d="M616.25,436.09H573.83a.51.51,0,0,1-.4-.19A22.7,22.7,0,0,0,556.51,427c-7.16-.56-13.15,2.46-17.82,8.93a.49.49,0,0,1-.4.21H416.07a.5.5,0,0,1-.5-.41c-1.39-8.2-6.28-22.13-23.45-23.45-7-.52-12.45,1.08-16.3,4.79-6.42,6.2-6.08,16.27-6.08,16.37a.5.5,0,0,1-.15.38.51.51,0,0,1-.39.14l-18.69-1.43a.47.47,0,0,1-.41-.29l-5.55-12.14a.49.49,0,0,1,0-.24l.46-6.13a.53.53,0,0,1,.28-.41l4.51-2.26c0-1.31.07-6,3.65-8.77a.53.53,0,0,1,.15-.08c.29-.1,29.87-9.77,67.63-9l50.87-21.65a.59.59,0,0,1,.23,0l78.11,6.28a.5.5,0,0,1,.31.14l27.44,26.65,34.44,7.24a.5.5,0,0,1,.4.53l-1.44,18.88,5,1.24a.5.5,0,0,1,.38.52l-.21,2.72A.5.5,0,0,1,616.25,436.09Zm-42.18-1h41.72l.14-1.83-5-1.24a.52.52,0,0,1-.38-.52L612,412.63l-34.15-7.18a.47.47,0,0,1-.25-.13l-27.42-26.63-77.8-6.25-50.86,21.64a.49.49,0,0,1-.21,0,224.63,224.63,0,0,0-67.31,9c-3.61,2.9-3.19,8.13-3.18,8.19a.49.49,0,0,1-.28.49L346,414l-.44,5.72,5.37,11.75,17.85,1.36c0-2.28.47-10.84,6.39-16.56,4.06-3.92,9.81-5.63,17.08-5.07,18.15,1.38,23,16.81,24.29,23.85H538c4.86-6.63,11.09-9.7,18.55-9.14A23.64,23.64,0,0,1,574.07,435.09Z" style="fill:#263238"></path><path d="M492.27,430.32h0a.5.5,0,0,1-.48-.52,178.87,178.87,0,0,1,6.53-41.32.5.5,0,0,1,1,.26,178.12,178.12,0,0,0-6.49,41.1A.5.5,0,0,1,492.27,430.32Z" style="fill:#263238"></path><path d="M422.7,430h0a.51.51,0,0,1-.49-.51c.07-2.5-1.18-4.48-2.5-6.59a16.82,16.82,0,0,1-2.36-4.81c-1.21-8.46,4.55-14.66,8.1-17.61a.5.5,0,0,1,.64.77c-3.39,2.81-8.9,8.72-7.76,16.65a16.2,16.2,0,0,0,2.22,4.47c1.35,2.14,2.74,4.35,2.66,7.14A.5.5,0,0,1,422.7,430Z" style="fill:#263238"></path><path d="M537.29,430.24a.52.52,0,0,1-.38-.17.51.51,0,0,1,.05-.71c5.31-4.54,14.09-6.84,22.49-5.91,1.2-4.53.72-8.66.21-13-.24-2.06-.49-4.2-.56-6.44a.5.5,0,0,1,.48-.52.52.52,0,0,1,.52.49c.07,2.19.32,4.31.56,6.36.53,4.59,1,8.93-.36,13.82a.49.49,0,0,1-.54.36c-8.25-1-17,1.17-22.15,5.62A.49.49,0,0,1,537.29,430.24Z" style="fill:#263238"></path><path d="M487.91,413.08h0l-7.31-.56a.5.5,0,0,1-.46-.54l.16-2.09a.51.51,0,0,1,.17-.34.55.55,0,0,1,.37-.12l7.31.56a.5.5,0,0,1,.46.54l-.16,2.09a.51.51,0,0,1-.17.34A.52.52,0,0,1,487.91,413.08Zm-6.78-1.52,6.32.48.08-1.09-6.31-.48Z" style="fill:#263238"></path><path d="M553.51,418.09h0l-7.32-.56a.51.51,0,0,1-.34-.17.57.57,0,0,1-.12-.37l.16-2.09a.52.52,0,0,1,.54-.46l7.31.56a.49.49,0,0,1,.34.17.5.5,0,0,1,.12.37l-.16,2.09A.5.5,0,0,1,553.51,418.09Zm-6.77-1.52,6.31.48.09-1.09-6.32-.48Z" style="fill:#263238"></path><polygon points="612.25 416.84 607.94 416.51 606.82 431.23 611.01 431.55 612.25 416.84" style="fill:#fff"></polygon><path d="M611,432.05h0l-4.19-.32a.46.46,0,0,1-.34-.18.48.48,0,0,1-.12-.36l1.12-14.72a.51.51,0,0,1,.17-.34A.55.55,0,0,1,608,416l4.31.33a.48.48,0,0,1,.34.18.52.52,0,0,1,.12.36l-1.24,14.71A.5.5,0,0,1,611,432.05Zm-3.66-1.28,3.21.24,1.15-13.71-3.31-.25Z" style="fill:#263238"></path><polygon points="541.15 381.82 557.05 399.67 556.46 407.33 498.55 402.91 503.82 378.35 541.15 381.82" style="fill:#fff"></polygon><path d="M556.46,407.83h0l-57.91-4.42a.49.49,0,0,1-.36-.2.48.48,0,0,1-.09-.4l5.27-24.57a.49.49,0,0,1,.53-.39l37.34,3.47a.46.46,0,0,1,.32.17l15.9,17.85a.56.56,0,0,1,.13.37l-.59,7.66a.49.49,0,0,1-.17.34A.5.5,0,0,1,556.46,407.83Zm-57.3-5.37L556,406.8l.53-6.95L540.91,382.3l-36.7-3.41Z" style="fill:#263238"></path><polygon points="498.28 378.23 490.61 402 433 397.6 473.72 376.97 498.28 378.23" style="fill:#fff"></polygon><path d="M490.61,402.5h0L433,398.1a.51.51,0,0,1-.45-.41.5.5,0,0,1,.26-.54l40.72-20.62a.37.37,0,0,1,.25,0l24.56,1.26a.47.47,0,0,1,.39.21.49.49,0,0,1,.06.44l-7.67,23.76A.5.5,0,0,1,490.61,402.5Zm-55.79-5.27,55.43,4.24,7.35-22.77-23.78-1.22Z" style="fill:#263238"></path><path d="M438.13,392.35c.22-1.34-5-1.33-5.61-1.18-11.81,3.22-.1,16.14,3.06,12.54C436.5,402.65,438.13,392.4,438.13,392.35Z" style="fill:#263238"></path><path d="M434.12,404.84a4.28,4.28,0,0,1-1.58-.35c-2.85-1.18-5.89-5-5.68-8.42.12-1.8,1.17-4.19,5.53-5.38.57-.16,4.75-.2,5.88.81a1,1,0,0,1,.36.93h0C438.46,393.5,437,402.88,436,404A2.34,2.34,0,0,1,434.12,404.84Zm-.51-13.25a4.27,4.27,0,0,0-1,.07c-3,.81-4.65,2.36-4.79,4.47-.18,2.93,2.57,6.41,5.07,7.44a2,2,0,0,0,2.27-.19c.58-.66,1.8-7,2.44-11.1C437.39,391.82,435,391.59,433.61,391.59Zm4,.68.49.08-.49-.08Z" style="fill:#263238"></path><path d="M353.72,402.64l9.19.7-.59,7.66-12,.31S349.48,405.7,353.72,402.64Z" style="fill:#fff"></path><path d="M350.28,411.81a.51.51,0,0,1-.5-.43c0-.24-.79-5.94,3.64-9.15a.49.49,0,0,1,.33-.09l9.2.7a.5.5,0,0,1,.46.54l-.59,7.66a.51.51,0,0,1-.48.46l-12,.31Zm3.58-8.66c-3.12,2.38-3.19,6.33-3.12,7.65l11.12-.29.51-6.71Z" style="fill:#263238"></path><path d="M413,435.59a20.07,20.07,0,0,0-40.06-2.4,19.27,19.27,0,0,0,0,2.4Z" style="fill:#263238"></path><path d="M413,436.09h-40.1a.5.5,0,0,1-.5-.48,19.76,19.76,0,0,1,0-2.46,20.57,20.57,0,0,1,41.06,2.46A.5.5,0,0,1,413,436.09Zm-39.62-1h39.13a19.57,19.57,0,0,0-39.08-1.87A18.69,18.69,0,0,0,373.41,435.09Z" style="fill:#263238"></path><path d="M405.46,435.59a12.51,12.51,0,1,0-24.94,0Z" style="fill:#fff"></path><path d="M405.46,436.09H380.52a.5.5,0,0,1-.5-.46,13.46,13.46,0,0,1,0-1.9,13,13,0,0,1,25.95,1.9A.5.5,0,0,1,405.46,436.09Zm-24.47-1h24a12,12,0,0,0-24-1.29A10.85,10.85,0,0,0,381,435.09Z" style="fill:#263238"></path><path d="M572.12,435.59a20.07,20.07,0,0,0-32.84,0Z" style="fill:#263238"></path><path d="M572.12,436.09H539.28a.48.48,0,0,1-.44-.27.49.49,0,0,1,0-.52,20.58,20.58,0,0,1,33.66,0,.51.51,0,0,1,0,.52A.49.49,0,0,1,572.12,436.09Zm-31.85-1h30.86a19.58,19.58,0,0,0-30.86,0Z" style="fill:#263238"></path><path d="M560.48,435.59a12.48,12.48,0,0,0-3.84-.92,12.35,12.35,0,0,0-5.73.92Z" style="fill:#fff"></path><path d="M560.48,436.09h-9.57a.5.5,0,0,1-.19-1,13,13,0,0,1,6-1,13.15,13.15,0,0,1,4,1,.5.5,0,0,1-.19,1Z" style="fill:#263238"></path><rect x="415.01" y="424.43" width="125.07" height="2.46" transform="translate(921.3 886.44) rotate(-175.63)" style="fill:#263238"></rect><rect x="347.75" y="415.33" width="21.51" height="2.46" transform="translate(684.25 859.22) rotate(-175.63)" style="fill:#263238"></rect><polygon points="615.02 435.59 615.07 434.93 575.85 431.93 575.66 434.38 591.51 435.59 615.02 435.59" style="fill:#263238"></polygon><path d="M647.39,435.86H334a.5.5,0,1,1,0-1H647.39a.5.5,0,0,1,0,1Z" style="fill:#263238"></path></g><g id="freepik--car-1--inject-200"><rect x="219.99" y="386.01" width="15.64" height="4.42" style="fill:#263238"></rect><path d="M235.88,390.68H219.74v-4.92h16.14Zm-15.64-.5h15.14v-3.92H220.24Z" style="fill:#263238"></path><rect x="121.13" y="386.01" width="15.64" height="4.42" style="fill:#263238"></rect><path d="M137,390.68H120.88v-4.92H137Zm-15.64-.5h15.14v-3.92H121.38Z" style="fill:#263238"></path><path d="M234.6,390.43c.8-6.66,1-12.13,1-12.65,0-1-2.58-5.8-3.22-7.09s-5.81-6.61-5.81-6.61-9.81-18.73-11.45-21.78c-3.1-5.79-8.22-4.84-8.22-4.84L178.22,336l-.16.05-.16-.05-28.71,1.45A8.86,8.86,0,0,0,141,342.3c-1.67,3-11.45,21.78-11.45,21.78s-5.16,5.32-5.8,6.61-3.23,6.13-3.23,7.09c0,.52.23,6,1,12.65Z" style="fill:#c2c2c2"></path><path d="M234.6,390.93H121.51a.5.5,0,0,1-.49-.44c-.82-6.78-1-12.22-1-12.71,0-.77,1.09-3,2.84-6.46.19-.36.34-.65.44-.86.64-1.28,5.11-5.93,5.84-6.68.64-1.21,9.82-18.81,11.43-21.72a9.4,9.4,0,0,1,8.71-5.09l28.63-1.46.16,0h.05l.16,0L206.9,337c.64-.09,5.65-.57,8.69,5.11,1.57,2.93,10.79,20.5,11.42,21.71.73.75,5.2,5.4,5.84,6.68l.44.86c1.76,3.41,2.84,5.69,2.84,6.46,0,.49-.22,5.93-1,12.71A.51.51,0,0,1,234.6,390.93Zm-112.64-1h112.2c.76-6.48,1-11.74,1-12.15,0-.69-2-4.55-2.73-6-.18-.35-.34-.65-.44-.86-.5-1-4.3-5-5.72-6.49a.44.44,0,0,1-.08-.11c-.1-.19-9.83-18.76-11.45-21.77-2.88-5.38-7.5-4.62-7.69-4.58a.48.48,0,0,1-.12,0l-28.62-1.44-.09,0a.62.62,0,0,1-.27,0l-.08,0L149.21,338a8.33,8.33,0,0,0-7.81,4.58c-1.65,3-11.35,21.58-11.44,21.77l-.09.11c-1.42,1.47-5.22,5.49-5.72,6.49-.1.21-.25.51-.44.86-.74,1.46-2.73,5.32-2.73,6C121,378.19,121.19,383.45,122,389.93Z" style="fill:#263238"></path><path d="M156.28,379.4s4.36,7.74,5.65,9,2.74,1.29,4.51,1.45,26.13,0,26.13,0a4.76,4.76,0,0,0,2.9-1.77c1-1.46,4.2-8.71,4.2-8.71Z" style="fill:#263238"></path><path d="M174,390.2c-3.88,0-7,0-7.59-.07l-.49,0c-1.58-.14-2.94-.25-4.18-1.49s-5.51-8.76-5.68-9.08l-.21-.37h44.19l-.15.35c-.14.29-3.25,7.29-4.22,8.74a5,5,0,0,1-3.07,1.89C191.93,390.13,181.52,390.2,174,390.2Zm-17.3-10.55c.89,1.55,4.3,7.51,5.4,8.6s2.32,1.21,3.87,1.34l.49,0c1.74.16,25.85,0,26.1,0a4.61,4.61,0,0,0,2.7-1.66c.82-1.24,3.35-6.86,4-8.32Z" style="fill:#263238"></path><path d="M160.6,380.45s3.49,6.2,4.53,7.23,2.19,1,3.61,1.16,20.92,0,20.92,0a3.87,3.87,0,0,0,2.33-1.42c.77-1.16,3.36-7,3.36-7Z" style="fill:#787878"></path><path d="M174.8,389.15c-3.11,0-5.6,0-6.08-.06l-.39,0a4.77,4.77,0,0,1-3.38-1.2c-1-1.05-4.42-7-4.56-7.29l-.21-.37h35.55l-.15.35c-.11.24-2.6,5.84-3.38,7a4.07,4.07,0,0,1-2.49,1.53C189.15,389.09,180.82,389.15,174.8,389.15ZM161,380.7a64.39,64.39,0,0,0,4.27,6.8,4.27,4.27,0,0,0,3.07,1.06l.39,0c1.4.13,20.69,0,20.9,0a3.62,3.62,0,0,0,2.12-1.31c.65-1,2.61-5.31,3.18-6.58Z" style="fill:#263238"></path><path d="M226.6,364.08s.81-6.29,2.26-6.29,7.9,1.77,8.06,3.06-1.29,2.74-2.58,3.06-4,.65-4,.65l-.64,2.42Z" style="fill:#c2c2c2"></path><path d="M229.67,367.48a.52.52,0,0,1-.35-.14l-3.06-2.9a.49.49,0,0,1-.15-.43c.25-2,1-6.72,2.75-6.72,1.15,0,8.33,1.67,8.56,3.5.2,1.57-1.43,3.23-3,3.61-1,.26-3,.52-3.75.61l-.56,2.1a.51.51,0,0,1-.35.35Zm-2.54-3.59L229.4,366l.43-1.61a.5.5,0,0,1,.42-.37s2.73-.32,4-.63c1.08-.27,2.33-1.51,2.21-2.52-.27-.85-6-2.62-7.57-2.62C228.41,358.29,227.56,360.76,227.13,363.89Z" style="fill:#263238"></path><path d="M129.51,364.08s-.8-6.29-2.26-6.29-7.9,1.77-8.06,3.06,1.29,2.74,2.58,3.06,4,.65,4,.65l.65,2.42Z" style="fill:#c2c2c2"></path><path d="M126.45,367.48l-.14,0a.51.51,0,0,1-.35-.35l-.55-2.1c-.78-.09-2.71-.35-3.76-.61-1.53-.38-3.15-2-3-3.61.23-1.83,7.42-3.5,8.56-3.5,1.71,0,2.5,4.7,2.76,6.72a.52.52,0,0,1-.15.43l-3.07,2.9A.49.49,0,0,1,126.45,367.48Zm.8-9.19c-1.54,0-7.29,1.77-7.56,2.63s1.13,2.24,2.2,2.51c1.25.31,3.94.63,4,.63a.53.53,0,0,1,.43.37l.42,1.61,2.27-2.15C128.55,360.76,127.7,358.29,127.25,358.29Z" style="fill:#263238"></path><path d="M133.87,360.37s62.9-2.42,87.89,0l-11-20s-28.39-3.55-65.32.16C145.48,340.53,137.9,352.46,133.87,360.37Z" style="fill:#fff"></path><path d="M222.21,360.66l-.47-.05c-24.7-2.39-87.24,0-87.86,0h-.43l.19-.38c4-7.82,11.55-19.74,11.63-19.86l.06-.1h.12a326.36,326.36,0,0,1,65.38-.16H211Zm-76.59-19.9c-.73,1.17-7.51,11.93-11.34,19.34,5.55-.2,63.09-2.24,87,0L210.64,340.6A328.23,328.23,0,0,0,145.62,340.76Z" style="fill:#263238"></path><path d="M148.22,378.59a17.78,17.78,0,0,1,3.87,8.71s-13.71-.65-19-2.74-6-2.26-6.13-3.23.32-7.9,2.42-9a5.67,5.67,0,0,1,6.45.81c2.1,1.61,4.68,4,6.13,4.51A49.72,49.72,0,0,0,148.22,378.59Z" style="fill:#fff"></path><path d="M152.39,387.56h-.31c-.56,0-13.81-.67-19.11-2.76l-1.34-.53c-4.23-1.66-4.77-1.87-4.94-2.89s.26-8.06,2.54-9.29a6,6,0,0,1,6.72.83c.61.47,1.27,1,1.91,1.53a18.11,18.11,0,0,0,4.15,2.94,50.14,50.14,0,0,0,6.24,1h.09l.06.07a17.8,17.8,0,0,1,3.94,8.84Zm-20.48-15.68a5.06,5.06,0,0,0-2.44.64c-1.89,1-2.46,7.73-2.29,8.77.12.72.57.91,4.63,2.51l1.34.52c4.78,1.89,16.56,2.6,18.64,2.71a17.76,17.76,0,0,0-3.69-8.2,48.32,48.32,0,0,1-6.25-1,18.45,18.45,0,0,1-4.31-3c-.65-.53-1.29-1.06-1.89-1.53A6.19,6.19,0,0,0,131.91,371.88Z" style="fill:#263238"></path><path d="M138.83,379.06a3.78,3.78,0,1,1-3.78-3.78A3.78,3.78,0,0,1,138.83,379.06Z" style="fill:#fff"></path><path d="M135.05,383.09a4,4,0,1,1,4-4A4,4,0,0,1,135.05,383.09Zm0-7.56a3.53,3.53,0,1,0,3.53,3.53A3.53,3.53,0,0,0,135.05,375.53Z" style="fill:#263238"></path><path d="M145.58,383.78a1.76,1.76,0,1,1-1.76-1.75A1.76,1.76,0,0,1,145.58,383.78Z" style="fill:#fff"></path><path d="M143.82,385.79a2,2,0,1,1,2-2A2,2,0,0,1,143.82,385.79Zm0-3.51a1.51,1.51,0,0,0,0,3,1.51,1.51,0,1,0,0-3Z" style="fill:#263238"></path><path d="M208.35,378.59a17.78,17.78,0,0,0-3.87,8.71s13.71-.65,19-2.74,6-2.26,6.13-3.23-.33-7.9-2.42-9a5.67,5.67,0,0,0-6.45.81c-2.1,1.61-4.68,4-6.13,4.51A49.72,49.72,0,0,1,208.35,378.59Z" style="fill:#fff"></path><path d="M204.18,387.56l0-.3a17.8,17.8,0,0,1,3.94-8.84l.06-.07h.09a50.14,50.14,0,0,0,6.24-1,18.11,18.11,0,0,0,4.15-2.94c.64-.52,1.3-1.06,1.9-1.53a6,6,0,0,1,6.73-.83c2.28,1.23,2.7,8.35,2.54,9.29s-.71,1.23-4.94,2.89l-1.34.53c-5.3,2.09-18.55,2.73-19.11,2.76Zm4.29-8.73a17.88,17.88,0,0,0-3.69,8.2c2.07-.11,13.86-.82,18.64-2.71l1.34-.52c4.06-1.6,4.51-1.79,4.63-2.51.17-1-.41-7.75-2.29-8.77s-4.12-.8-6.18.78c-.6.47-1.25,1-1.89,1.53a18.66,18.66,0,0,1-4.31,3A48.32,48.32,0,0,1,208.47,378.83Z" style="fill:#263238"></path><path d="M218.61,379.06a3.78,3.78,0,1,0,3.78-3.78A3.78,3.78,0,0,0,218.61,379.06Z" style="fill:#fff"></path><path d="M222.39,383.09a4,4,0,1,1,4-4A4,4,0,0,1,222.39,383.09Zm0-7.56a3.53,3.53,0,1,0,3.53,3.53A3.53,3.53,0,0,0,222.39,375.53Z" style="fill:#263238"></path><path d="M211.86,383.78a1.76,1.76,0,1,0,1.76-1.75A1.76,1.76,0,0,0,211.86,383.78Z" style="fill:#fff"></path><path d="M213.62,385.79a2,2,0,1,1,2-2A2,2,0,0,1,213.62,385.79Zm0-3.51a1.51,1.51,0,1,0,1.5,1.5A1.51,1.51,0,0,0,213.62,382.28Z" style="fill:#263238"></path><path d="M206.84,381.32h-.08l-4-1.32h-3.12a.25.25,0,1,1,0-.5h3.24l4,1.33a.25.25,0,0,1,.16.32A.23.23,0,0,1,206.84,381.32Z" style="fill:#263238"></path><path d="M150,381.13a.24.24,0,0,1-.22-.13.25.25,0,0,1,.09-.34l2.73-1.56,3.69,0a.23.23,0,0,1,.24.25.26.26,0,0,1-.25.25l-3.55,0-2.61,1.49Z" style="fill:#263238"></path><path d="M218.19,363.28a.25.25,0,0,1-.22-.12.25.25,0,0,1,.09-.34c.43-.24.85-.47,1.25-.66a.26.26,0,0,1,.34.11.25.25,0,0,1-.12.34c-.4.19-.81.41-1.22.64Z" style="fill:#263238"></path><path d="M201,385l-.11,0a.26.26,0,0,1-.11-.34c3-6.42,8-15.58,15.88-20.92a.25.25,0,0,1,.35.07.25.25,0,0,1-.07.34c-7.78,5.27-12.69,14.35-15.71,20.73A.25.25,0,0,1,201,385Z" style="fill:#263238"></path><path d="M139.3,364.15a.28.28,0,0,1-.13,0c-.67-.41-1.36-.79-2.06-1.13a.25.25,0,0,1-.11-.34.25.25,0,0,1,.33-.11c.71.35,1.42.74,2.1,1.15a.25.25,0,0,1,.08.34A.24.24,0,0,1,139.3,364.15Z" style="fill:#263238"></path><path d="M155,384.91a.25.25,0,0,1-.23-.16c-2.23-6.07-6.5-14.42-14.15-19.72a.25.25,0,1,1,.28-.41c7.76,5.38,12.08,13.82,14.34,20a.25.25,0,0,1-.15.32Z" style="fill:#263238"></path><path d="M132.64,371.73s-1.71-4.2-1.71-6.68" style="fill:#fff"></path><path d="M132.64,372a.25.25,0,0,1-.23-.16c-.07-.17-1.73-4.27-1.73-6.77a.25.25,0,0,1,.25-.25.25.25,0,0,1,.25.25c0,2.4,1.68,6.54,1.69,6.58a.25.25,0,0,1-.13.33Z" style="fill:#263238"></path><path d="M224.38,371.54a34.08,34.08,0,0,0,1-5.34" style="fill:#fff"></path><path d="M224.38,371.79l-.07,0a.24.24,0,0,1-.17-.31,33.32,33.32,0,0,0,1-5.29.23.23,0,0,1,.27-.22.24.24,0,0,1,.22.27,31.51,31.51,0,0,1-1,5.39A.26.26,0,0,1,224.38,371.79Z" style="fill:#263238"></path><path d="M178.69,384.53c-.35,0-.69,0-1,0l-15.57-1.24a.26.26,0,0,1-.23-.27.25.25,0,0,1,.27-.23L177.7,384a12.56,12.56,0,0,0,1.94,0L194,382.88a.25.25,0,0,1,.27.22.26.26,0,0,1-.23.27l-14.35,1.12C179.35,384.51,179,384.53,178.69,384.53Z" style="fill:#263238"></path><path d="M166.31,385.12h0l-3.17-.25a.25.25,0,0,1,0-.5l3.17.25a.25.25,0,0,1,0,.5Z" style="fill:#263238"></path><path d="M173.1,350.53c-7.21,4.24-26.93,8-37.11,9.76,11.16-.39,63.5-2.08,85.77.08l-9.82-17.91C197.67,341.5,180.5,346.18,173.1,350.53Z" style="fill:#787878"></path><path d="M222.21,360.66l-.47-.05c-24.7-2.39-87.24,0-87.86,0h-.43l.19-.38c4-7.82,11.55-19.74,11.63-19.86l.06-.1h.12a326.36,326.36,0,0,1,65.38-.16H211Zm-76.59-19.9c-.73,1.17-7.51,11.93-11.34,19.34,5.55-.2,63.09-2.24,87,0L210.64,340.6A328.23,328.23,0,0,0,145.62,340.76Z" style="fill:#263238"></path><path d="M213.66,390.13l3-.56c4.15-.76,8.06-1.47,9.74-2.28,3.82-1.84,5.08-11.31,5.14-11.71a.27.27,0,0,0-.22-.29.26.26,0,0,0-.28.22c0,.1-1.28,9.61-4.86,11.33-1.61.78-5.5,1.49-9.61,2.24-1.87.34-3.75.69-5.51,1.05Z" style="fill:#263238"></path><path d="M288.57,391H93.82a.5.5,0,0,1-.5-.5.5.5,0,0,1,.5-.5H288.57a.51.51,0,0,1,.5.5A.5.5,0,0,1,288.57,391Z" style="fill:#263238"></path></g><g id="freepik--Rain--inject-200"><path d="M121,424.58a.25.25,0,0,1-.25-.25l-.45-16.43a.26.26,0,0,1,.25-.26h0a.25.25,0,0,1,.25.24l.45,16.44a.26.26,0,0,1-.25.26Z" style="fill:#263238"></path><path d="M119.48,377.73a.26.26,0,0,1-.25-.24L115,259.81a.25.25,0,1,1,.5,0l4.26,117.68a.24.24,0,0,1-.24.26Z" style="fill:#263238"></path><path d="M114.59,242.71a.25.25,0,0,1-.25-.24l-1.69-46.66a.25.25,0,0,1,.24-.26.24.24,0,0,1,.26.24l1.69,46.66a.24.24,0,0,1-.24.26Z" style="fill:#263238"></path><path d="M112.46,183.89a.26.26,0,0,1-.25-.24L110,123.78a.25.25,0,0,1,.24-.26.23.23,0,0,1,.26.24l2.17,59.87a.25.25,0,0,1-.24.26Z" style="fill:#263238"></path><path d="M109.15,92.56a.26.26,0,0,1-.25-.24l-1.09-37.78a.26.26,0,0,1,.25-.26.23.23,0,0,1,.25.24L109.4,92.3a.24.24,0,0,1-.24.26Z" style="fill:#263238"></path><path d="M489.92,448.73a.26.26,0,0,1-.25-.24l-1.06-29.43a.25.25,0,0,1,.24-.26.26.26,0,0,1,.26.24l1.06,29.43a.24.24,0,0,1-.24.26Z" style="fill:#263238"></path><path d="M484.59,377.73a.26.26,0,0,1-.25-.24l-4.26-117.68a.25.25,0,0,1,.24-.26.24.24,0,0,1,.26.24l4.26,117.68a.24.24,0,0,1-.24.26Z" style="fill:#263238"></path><path d="M479.7,242.71a.25.25,0,0,1-.25-.24l-1.69-46.66a.26.26,0,0,1,.24-.26c.15,0,.26.11.26.24L480,242.45a.24.24,0,0,1-.24.26Z" style="fill:#263238"></path><path d="M477.57,183.89a.26.26,0,0,1-.25-.24l-2.17-59.87a.25.25,0,0,1,.24-.26.24.24,0,0,1,.26.24l2.17,59.87a.25.25,0,0,1-.24.26Z" style="fill:#263238"></path><path d="M474.26,92.56a.26.26,0,0,1-.25-.25l-.33-24.4a.26.26,0,0,1,.25-.26.24.24,0,0,1,.25.25l.33,24.41a.23.23,0,0,1-.24.25Z" style="fill:#263238"></path><path d="M137.48,444.67h0a.23.23,0,0,1-.24-.25l.33-16.23a.25.25,0,0,1,.25-.25h0a.26.26,0,0,1,.25.26l-.33,16.23A.26.26,0,0,1,137.48,444.67Z" style="fill:#263238"></path><path d="M138.08,415.23h0a.23.23,0,0,1-.24-.25l.95-46.68c0-.14.13-.22.26-.25a.25.25,0,0,1,.24.26L138.33,415A.25.25,0,0,1,138.08,415.23Z" style="fill:#263238"></path><path d="M139.65,338.14h0a.26.26,0,0,1-.25-.26l2-97.42a.26.26,0,0,1,.26-.25.25.25,0,0,1,.24.26l-2,97.42A.25.25,0,0,1,139.65,338.14Z" style="fill:#263238"></path><path d="M142.35,206.14h0a.25.25,0,0,1-.25-.25L143.43,141a.23.23,0,0,1,.25-.25.26.26,0,0,1,.25.26L142.6,205.9A.24.24,0,0,1,142.35,206.14Z" style="fill:#263238"></path><path d="M144.2,115.86h0a.25.25,0,0,1-.25-.25l.24-37.42a.25.25,0,0,1,.25-.25h0a.25.25,0,0,1,.25.25l-.24,37.42A.25.25,0,0,1,144.2,115.86Z" style="fill:#263238"></path><path d="M175.45,445.59a.25.25,0,0,1-.25-.25l-.46-22.21a.26.26,0,0,1,.25-.26.25.25,0,0,1,.25.25l.46,22.21a.26.26,0,0,1-.25.26Z" style="fill:#263238"></path><path d="M174.62,409.15a.26.26,0,0,1-.25-.24l-.94-36.46a.24.24,0,0,1,.24-.26h0a.26.26,0,0,1,.25.24l.94,36.46a.25.25,0,0,1-.24.26Z" style="fill:#263238"></path><path d="M173,347.28a.24.24,0,0,1-.25-.24l-1.34-51.75a.23.23,0,0,1,.24-.25.27.27,0,0,1,.26.24L173.27,347a.25.25,0,0,1-.25.25Z" style="fill:#263238"></path><path d="M171,269.17a.26.26,0,0,1-.25-.25l-1.79-69a.25.25,0,0,1,.25-.25.24.24,0,0,1,.25.24l1.79,69a.25.25,0,0,1-.24.26Z" style="fill:#263238"></path><path d="M168.65,178.83a.25.25,0,0,1-.25-.25l-1.68-64.93a.23.23,0,0,1,.24-.25.25.25,0,0,1,.26.24l1.68,64.93a.26.26,0,0,1-.24.26Z" style="fill:#263238"></path><path d="M166.49,95.59a.25.25,0,0,1-.25-.24l-.87-33.47a.26.26,0,0,1,.25-.26.25.25,0,0,1,.25.24l.87,33.47a.25.25,0,0,1-.24.26Z" style="fill:#263238"></path><path d="M165.39,53a.24.24,0,0,1-.25-.24l-.48-18.31a.25.25,0,0,1,.25-.25.24.24,0,0,1,.25.24l.48,18.31a.25.25,0,0,1-.25.25Z" style="fill:#263238"></path><path d="M48.84,444.67h0a.23.23,0,0,1-.24-.25l.33-16.23a.25.25,0,0,1,.25-.25h0a.26.26,0,0,1,.25.26l-.33,16.23A.26.26,0,0,1,48.84,444.67Z" style="fill:#263238"></path><path d="M49.44,415.23h0a.25.25,0,0,1-.24-.25l1-46.68a.26.26,0,0,1,.25-.25h0a.24.24,0,0,1,.24.26l-1,46.68A.25.25,0,0,1,49.44,415.23Z" style="fill:#263238"></path><path d="M51,338.14h0a.26.26,0,0,1-.25-.26l2-97.42a.25.25,0,0,1,.25-.25.26.26,0,0,1,.25.26l-2,97.42A.25.25,0,0,1,51,338.14Z" style="fill:#263238"></path><path d="M53.71,206.14h0a.25.25,0,0,1-.25-.25L54.79,141a.24.24,0,0,1,.25-.25.26.26,0,0,1,.25.26L54,205.9A.24.24,0,0,1,53.71,206.14Z" style="fill:#263238"></path><path d="M55.65,129.88a.25.25,0,0,1-.25-.25l-.09-14a.25.25,0,0,1,.25-.25h0a.25.25,0,0,1,.25.25l.09,14a.25.25,0,0,1-.25.25Z" style="fill:#263238"></path><path d="M86.81,453.52a.25.25,0,0,1-.25-.25l-.46-30.14a.26.26,0,0,1,.25-.26h0a.25.25,0,0,1,.25.25l.46,30.15a.25.25,0,0,1-.25.25Z" style="fill:#263238"></path><path d="M86,409.15a.26.26,0,0,1-.25-.24l-.94-36.46a.24.24,0,0,1,.24-.26h0a.26.26,0,0,1,.25.24l.94,36.46a.25.25,0,0,1-.24.26Z" style="fill:#263238"></path><path d="M84.38,347.28a.24.24,0,0,1-.25-.24l-1.34-51.75A.23.23,0,0,1,83,295a.27.27,0,0,1,.26.24L84.63,347a.25.25,0,0,1-.25.25Z" style="fill:#263238"></path><path d="M82.35,269.17a.26.26,0,0,1-.25-.25l-1.79-69a.25.25,0,0,1,.25-.25.24.24,0,0,1,.25.24l1.79,69a.25.25,0,0,1-.24.26Z" style="fill:#263238"></path><path d="M80,178.83a.25.25,0,0,1-.25-.25l-1.68-64.93a.23.23,0,0,1,.24-.25.25.25,0,0,1,.26.24l1.68,64.93a.26.26,0,0,1-.24.26Z" style="fill:#263238"></path><path d="M78.89,86.94a.24.24,0,0,1-.25-.24l-.48-18.31a.25.25,0,0,1,.25-.25h0a.25.25,0,0,1,.25.24l.48,18.31a.25.25,0,0,1-.25.25Z" style="fill:#263238"></path><path d="M225.06,437.57a.26.26,0,0,1-.25-.24l-1.07-29.43a.26.26,0,0,1,.25-.26.23.23,0,0,1,.25.24l1.07,29.43a.25.25,0,0,1-.24.26Z" style="fill:#263238"></path><path d="M222.89,377.73a.26.26,0,0,1-.25-.24l-4.26-117.68a.25.25,0,0,1,.24-.26.24.24,0,0,1,.26.24l4.26,117.68a.24.24,0,0,1-.24.26Z" style="fill:#263238"></path><path d="M218,242.71a.25.25,0,0,1-.25-.24l-1.69-46.66a.26.26,0,0,1,.25-.26.23.23,0,0,1,.25.24l1.69,46.66a.24.24,0,0,1-.24.26Z" style="fill:#263238"></path><path d="M215.87,183.89a.26.26,0,0,1-.25-.24l-2.16-59.87a.24.24,0,0,1,.24-.26.24.24,0,0,1,.26.24l2.16,59.87a.25.25,0,0,1-.24.26Z" style="fill:#263238"></path><path d="M212.57,92.56a.24.24,0,0,1-.25-.24L210,29.37a.25.25,0,0,1,.24-.26.24.24,0,0,1,.26.24l2.28,63a.25.25,0,0,1-.24.26Z" style="fill:#263238"></path><path d="M250.39,444.67h0a.23.23,0,0,1-.24-.25l.33-16.23a.25.25,0,0,1,.25-.25h0a.26.26,0,0,1,.25.26l-.33,16.23A.26.26,0,0,1,250.39,444.67Z" style="fill:#263238"></path><path d="M251,415.23h0a.23.23,0,0,1-.24-.25l.45-20a.26.26,0,0,1,.26-.24.24.24,0,0,1,.24.25L251.24,415A.25.25,0,0,1,251,415.23Z" style="fill:#263238"></path><path d="M252.85,306h0a.24.24,0,0,1-.24-.26l1.7-65.26a.3.3,0,0,1,.26-.25.25.25,0,0,1,.24.26l-1.7,65.27A.26.26,0,0,1,252.85,306Z" style="fill:#263238"></path><path d="M256.37,158.49h0a.23.23,0,0,1-.24-.25l.22-17.29a.25.25,0,0,1,.25-.25h0a.25.25,0,0,1,.25.25l-.22,17.3A.26.26,0,0,1,256.37,158.49Z" style="fill:#263238"></path><path d="M257.11,115.86h0a.24.24,0,0,1-.24-.26l1.72-84.21a.25.25,0,0,1,.25-.25.26.26,0,0,1,.25.26l-1.72,84.21A.26.26,0,0,1,257.11,115.86Z" style="fill:#263238"></path><path d="M288.37,441.63a.26.26,0,0,1-.25-.25l-.47-18.25a.26.26,0,0,1,.24-.26.24.24,0,0,1,.26.25l.47,18.25a.25.25,0,0,1-.24.26Z" style="fill:#263238"></path><path d="M287.53,409.15a.26.26,0,0,1-.25-.24l-.94-36.46a.24.24,0,0,1,.24-.26h0a.26.26,0,0,1,.25.24l.94,36.46a.25.25,0,0,1-.24.26Z" style="fill:#263238"></path><path d="M285.93,347.28a.24.24,0,0,1-.25-.24l-1.34-51.75a.23.23,0,0,1,.24-.25.26.26,0,0,1,.26.24L286.18,347a.25.25,0,0,1-.25.25Z" style="fill:#263238"></path><path d="M283.9,269.17a.26.26,0,0,1-.25-.25l-1.79-69a.25.25,0,0,1,.25-.25.23.23,0,0,1,.25.24l1.79,69a.25.25,0,0,1-.24.26Z" style="fill:#263238"></path><path d="M281.56,178.83a.25.25,0,0,1-.25-.25l-1.68-64.93a.23.23,0,0,1,.24-.25.24.24,0,0,1,.26.24l1.68,64.93a.26.26,0,0,1-.24.26Z" style="fill:#263238"></path><path d="M279.4,95.59a.25.25,0,0,1-.25-.24l-.87-33.47a.26.26,0,0,1,.25-.26.24.24,0,0,1,.25.24l.87,33.47a.25.25,0,0,1-.24.26Z" style="fill:#263238"></path><path d="M278.3,53a.24.24,0,0,1-.25-.24l-.48-18.31a.25.25,0,0,1,.25-.25.23.23,0,0,1,.25.24l.48,18.31a.25.25,0,0,1-.25.25Z" style="fill:#263238"></path><path d="M386.51,451.78h0a.25.25,0,0,1-.24-.26l1.07-29.43c0-.14.1-.23.26-.24a.25.25,0,0,1,.24.26l-1.07,29.43A.25.25,0,0,1,386.51,451.78Z" style="fill:#263238"></path><path d="M388.68,377.73h0a.24.24,0,0,1-.24-.26l4.26-117.68a.25.25,0,0,1,.26-.24.25.25,0,0,1,.24.26l-4.26,117.68A.26.26,0,0,1,388.68,377.73Z" style="fill:#263238"></path><path d="M393.57,242.71h0a.24.24,0,0,1-.24-.26L395,195.79a.25.25,0,0,1,.26-.24.26.26,0,0,1,.24.26l-1.69,46.66A.25.25,0,0,1,393.57,242.71Z" style="fill:#263238"></path><path d="M395.7,183.89h0a.25.25,0,0,1-.24-.26l2.17-59.87a.24.24,0,0,1,.26-.24.25.25,0,0,1,.24.26L396,183.65A.26.26,0,0,1,395.7,183.89Z" style="fill:#263238"></path><path d="M399,92.56h0a.24.24,0,0,1-.24-.26L401,29.35a.27.27,0,0,1,.26-.24.25.25,0,0,1,.24.26l-2.27,62.95A.25.25,0,0,1,399,92.56Z" style="fill:#263238"></path><path d="M361.19,444.67a.25.25,0,0,1-.25-.24l-.34-16.23a.26.26,0,0,1,.25-.26h0a.25.25,0,0,1,.25.25l.34,16.23a.25.25,0,0,1-.25.25Z" style="fill:#263238"></path><path d="M360.58,415.23a.25.25,0,0,1-.25-.24l-.95-46.68a.26.26,0,0,1,.25-.26c.14,0,.25.11.25.25l.95,46.68a.23.23,0,0,1-.24.25Z" style="fill:#263238"></path><path d="M359,338.14a.25.25,0,0,1-.25-.25l-2-97.42a.25.25,0,1,1,.5,0l2,97.42a.26.26,0,0,1-.25.26Z" style="fill:#263238"></path><path d="M356.31,206.14a.24.24,0,0,1-.25-.24L354.73,141a.26.26,0,0,1,.25-.26.25.25,0,0,1,.25.25l1.33,64.94a.25.25,0,0,1-.24.25Z" style="fill:#263238"></path><path d="M354.46,115.86a.26.26,0,0,1-.25-.25L352.49,31.4a.25.25,0,1,1,.5,0l1.72,84.21a.24.24,0,0,1-.24.26Z" style="fill:#263238"></path><path d="M323,451.54h0a.25.25,0,0,1-.24-.26l.63-28.16a.27.27,0,0,1,.26-.25.26.26,0,0,1,.24.26l-.63,28.16A.26.26,0,0,1,323,451.54Z" style="fill:#263238"></path><path d="M324,409.15h0a.26.26,0,0,1-.24-.26l.94-36.46a.26.26,0,0,1,.25-.24h0a.24.24,0,0,1,.24.26l-.94,36.46A.25.25,0,0,1,324,409.15Z" style="fill:#263238"></path><path d="M325.64,347.28h0a.25.25,0,0,1-.25-.25l1.35-51.75A.27.27,0,0,1,327,295a.25.25,0,0,1,.25.25L325.89,347A.24.24,0,0,1,325.64,347.28Z" style="fill:#263238"></path><path d="M327.67,269.17h0a.26.26,0,0,1-.24-.26l1.79-69a.25.25,0,0,1,.26-.24.25.25,0,0,1,.24.25l-1.79,69A.25.25,0,0,1,327.67,269.17Z" style="fill:#263238"></path><path d="M330,178.83h0a.26.26,0,0,1-.25-.26l1.69-64.93a.24.24,0,0,1,.25-.24.25.25,0,0,1,.25.25l-1.69,64.93A.25.25,0,0,1,330,178.83Z" style="fill:#263238"></path><path d="M332.17,95.59h0a.26.26,0,0,1-.24-.26l.87-33.47a.26.26,0,0,1,.25-.24.26.26,0,0,1,.25.26l-.87,33.47A.25.25,0,0,1,332.17,95.59Z" style="fill:#263238"></path><path d="M333.28,53a.25.25,0,0,1-.25-.24l-.56-35.25a.25.25,0,1,1,.5,0l.56,35.25a.25.25,0,0,1-.25.25Z" style="fill:#263238"></path><path d="M480.43,437.57h0a.25.25,0,0,1-.24-.26l1.06-29.43a.25.25,0,0,1,.26-.24.24.24,0,0,1,.24.26l-1.06,29.43A.26.26,0,0,1,480.43,437.57Z" style="fill:#263238"></path><path d="M482.59,377.73h0a.26.26,0,0,1-.25-.26l4.27-117.68a.25.25,0,0,1,.25-.24.26.26,0,0,1,.25.26l-4.27,117.68A.25.25,0,0,1,482.59,377.73Z" style="fill:#263238"></path><path d="M487.48,242.71h0a.25.25,0,0,1-.24-.26l1.69-46.66a.27.27,0,0,1,.26-.24.25.25,0,0,1,.24.26l-1.69,46.66A.24.24,0,0,1,487.48,242.71Z" style="fill:#263238"></path><path d="M489.61,183.89h0a.26.26,0,0,1-.24-.26l2.17-59.87a.25.25,0,0,1,.26-.24.24.24,0,0,1,.24.26l-2.17,59.87A.25.25,0,0,1,489.61,183.89Z" style="fill:#263238"></path><path d="M492.12,109.3h0a.24.24,0,0,1-.24-.26l.8-16.74a.25.25,0,1,1,.5,0l-.8,16.75A.25.25,0,0,1,492.12,109.3Z" style="fill:#263238"></path><path d="M455.37,451.93a.25.25,0,0,1-.25-.24l-.6-23.49a.26.26,0,0,1,.24-.26h0a.25.25,0,0,1,.25.24l.6,23.5a.23.23,0,0,1-.24.25Z" style="fill:#263238"></path><path d="M454.5,415.23a.24.24,0,0,1-.25-.24l-.95-46.68a.24.24,0,0,1,.24-.26.25.25,0,0,1,.26.25l.95,46.68a.25.25,0,0,1-.24.25Z" style="fill:#263238"></path><path d="M452.92,338.14a.26.26,0,0,1-.25-.25l-2-97.42a.26.26,0,0,1,.25-.26c.15,0,.25.11.25.25l2,97.42a.25.25,0,0,1-.24.26Z" style="fill:#263238"></path><path d="M450.23,206.14a.24.24,0,0,1-.25-.24L448.65,141a.25.25,0,0,1,.24-.26c.16,0,.26.11.26.25l1.33,64.94a.25.25,0,0,1-.25.25Z" style="fill:#263238"></path><path d="M448.38,115.86a.25.25,0,0,1-.25-.25L448,66.87a.25.25,0,0,1,.25-.25h0a.25.25,0,0,1,.25.25l.12,48.74a.25.25,0,0,1-.25.25Z" style="fill:#263238"></path><path d="M417.11,441.63h0a.26.26,0,0,1-.25-.26l.48-18.25a.25.25,0,0,1,.25-.25.26.26,0,0,1,.25.26l-.48,18.25A.25.25,0,0,1,417.11,441.63Z" style="fill:#263238"></path><path d="M418,409.15h0a.25.25,0,0,1-.24-.26l.94-36.46a.25.25,0,0,1,.25-.24h0a.25.25,0,0,1,.24.26l-.94,36.46A.26.26,0,0,1,418,409.15Z" style="fill:#263238"></path><path d="M419.56,347.28h0a.25.25,0,0,1-.24-.25l1.34-51.75a.27.27,0,0,1,.26-.24.24.24,0,0,1,.24.25L419.81,347A.25.25,0,0,1,419.56,347.28Z" style="fill:#263238"></path><path d="M421.59,269.17h0a.25.25,0,0,1-.24-.26l1.79-69a.24.24,0,0,1,.25-.24.25.25,0,0,1,.25.25l-1.79,69A.26.26,0,0,1,421.59,269.17Z" style="fill:#263238"></path><path d="M423.93,178.83h0a.25.25,0,0,1-.24-.26l1.68-64.93a.25.25,0,0,1,.26-.24.24.24,0,0,1,.24.25l-1.68,64.93A.26.26,0,0,1,423.93,178.83Z" style="fill:#263238"></path><path d="M426.09,95.59h0a.25.25,0,0,1-.24-.26l.86-33.47a.28.28,0,0,1,.26-.24.24.24,0,0,1,.24.26l-.86,33.47A.26.26,0,0,1,426.09,95.59Z" style="fill:#263238"></path><path d="M427.19,53h0a.25.25,0,0,1-.24-.25l.48-18.31a.25.25,0,0,1,.5,0l-.48,18.31A.24.24,0,0,1,427.19,53Z" style="fill:#263238"></path><path d="M83.51,452.33a.27.27,0,0,1-.19-.08l-2.47-2.78a.25.25,0,1,1,.37-.33l2.48,2.77a.26.26,0,0,1,0,.36A.27.27,0,0,1,83.51,452.33Z" style="fill:#263238"></path><path d="M89.28,451.54l-.09,0a.26.26,0,0,1-.14-.33A4.79,4.79,0,0,1,93,448.66a.26.26,0,0,1,.28.21.26.26,0,0,1-.21.29,4.33,4.33,0,0,0-3.52,2.22A.25.25,0,0,1,89.28,451.54Z" style="fill:#263238"></path><path d="M247.59,452.33a.25.25,0,0,1-.18-.08l-2.48-2.78a.25.25,0,0,1,0-.35.26.26,0,0,1,.36,0l2.47,2.77a.26.26,0,0,1,0,.36A.27.27,0,0,1,247.59,452.33Z" style="fill:#263238"></path><path d="M253.36,451.54l-.09,0a.26.26,0,0,1-.14-.33,4.79,4.79,0,0,1,3.91-2.53.26.26,0,0,1,.28.21.25.25,0,0,1-.21.29,4.33,4.33,0,0,0-3.52,2.22A.25.25,0,0,1,253.36,451.54Z" style="fill:#263238"></path><path d="M383.23,452.33a.27.27,0,0,1-.19-.08l-2.47-2.78a.24.24,0,0,1,0-.35.25.25,0,0,1,.35,0l2.47,2.77a.25.25,0,0,1,0,.36A.23.23,0,0,1,383.23,452.33Z" style="fill:#263238"></path><path d="M389,451.54l-.1,0a.26.26,0,0,1-.13-.33,4.74,4.74,0,0,1,3.91-2.53.26.26,0,0,1,.28.21.26.26,0,0,1-.22.29,4.31,4.31,0,0,0-3.51,2.22A.25.25,0,0,1,389,451.54Z" style="fill:#263238"></path><path d="M452.9,452.33a.27.27,0,0,1-.19-.08l-2.47-2.78a.25.25,0,0,1,0-.35.24.24,0,0,1,.35,0l2.48,2.77a.26.26,0,0,1,0,.36A.27.27,0,0,1,452.9,452.33Z" style="fill:#263238"></path><path d="M458.67,451.54l-.09,0a.26.26,0,0,1-.14-.33,4.79,4.79,0,0,1,3.91-2.53.25.25,0,0,1,.28.21.26.26,0,0,1-.21.29,4.34,4.34,0,0,0-3.52,2.22A.25.25,0,0,1,458.67,451.54Z" style="fill:#263238"></path><path d="M335.82,452.33a.27.27,0,0,1-.19-.08l-2.47-2.78a.24.24,0,0,1,0-.35.25.25,0,0,1,.35,0l2.47,2.77a.25.25,0,0,1,0,.36A.23.23,0,0,1,335.82,452.33Z" style="fill:#263238"></path><path d="M341.59,451.54l-.1,0a.26.26,0,0,1-.13-.33,4.74,4.74,0,0,1,3.91-2.53.26.26,0,0,1,.28.21.26.26,0,0,1-.22.29,4.31,4.31,0,0,0-3.51,2.22A.25.25,0,0,1,341.59,451.54Z" style="fill:#263238"></path><path d="M673.91,448.73a.26.26,0,0,1-.25-.24l-1.06-29.43a.25.25,0,0,1,.24-.26.25.25,0,0,1,.26.24l1.06,29.43a.24.24,0,0,1-.24.26Z" style="fill:#263238"></path><path d="M668.58,377.73a.26.26,0,0,1-.25-.24l-4.26-117.68a.25.25,0,0,1,.5,0l4.26,117.68a.24.24,0,0,1-.24.26Z" style="fill:#263238"></path><path d="M663.69,242.71a.25.25,0,0,1-.25-.24l-1.69-46.66a.25.25,0,0,1,.24-.26c.16,0,.26.11.26.24l1.69,46.66a.24.24,0,0,1-.24.26Z" style="fill:#263238"></path><path d="M661.56,183.89a.26.26,0,0,1-.25-.24l-2.17-59.87a.25.25,0,0,1,.5,0l2.17,59.87a.25.25,0,0,1-.24.26Z" style="fill:#263238"></path><path d="M658.25,92.56a.26.26,0,0,1-.25-.25l-.33-24.4a.25.25,0,1,1,.5,0l.33,24.41a.23.23,0,0,1-.24.25Z" style="fill:#263238"></path><path d="M570.5,451.78h0a.25.25,0,0,1-.24-.26l1.07-29.43a.24.24,0,0,1,.26-.24.25.25,0,0,1,.24.26l-1.07,29.43A.25.25,0,0,1,570.5,451.78Z" style="fill:#263238"></path><path d="M572.67,377.73h0a.24.24,0,0,1-.24-.26l4.26-117.68a.25.25,0,0,1,.26-.24.25.25,0,0,1,.24.26l-4.26,117.68A.26.26,0,0,1,572.67,377.73Z" style="fill:#263238"></path><path d="M577.56,242.71h0a.24.24,0,0,1-.24-.26L579,195.79a.25.25,0,0,1,.26-.24.26.26,0,0,1,.24.26l-1.69,46.66A.25.25,0,0,1,577.56,242.71Z" style="fill:#263238"></path><path d="M579.69,183.89h0a.25.25,0,0,1-.24-.26l2.17-59.87a.24.24,0,0,1,.25-.24.26.26,0,0,1,.25.26l-2.17,59.87A.26.26,0,0,1,579.69,183.89Z" style="fill:#263238"></path><path d="M583,92.56h0a.26.26,0,0,1-.25-.26L585,29.35a.27.27,0,0,1,.26-.24.25.25,0,0,1,.24.26l-2.28,62.95A.24.24,0,0,1,583,92.56Z" style="fill:#263238"></path><path d="M545.17,444.67a.26.26,0,0,1-.25-.24l-.33-16.23a.26.26,0,0,1,.25-.26h0a.25.25,0,0,1,.25.25l.33,16.23a.23.23,0,0,1-.24.25Z" style="fill:#263238"></path><path d="M544.57,415.23a.25.25,0,0,1-.25-.24l-1-46.68a.25.25,0,1,1,.5,0l1,46.68a.23.23,0,0,1-.24.25Z" style="fill:#263238"></path><path d="M543,338.14a.25.25,0,0,1-.25-.25l-2-97.42a.25.25,0,0,1,.24-.26h0a.26.26,0,0,1,.25.25l2,97.42a.26.26,0,0,1-.25.26Z" style="fill:#263238"></path><path d="M540.3,206.14a.24.24,0,0,1-.25-.24L538.72,141a.26.26,0,0,1,.25-.26.27.27,0,0,1,.25.25l1.33,64.94a.25.25,0,0,1-.25.25Z" style="fill:#263238"></path><path d="M538.45,115.86a.26.26,0,0,1-.25-.25L536.48,31.4a.25.25,0,1,1,.5,0l1.72,84.21a.24.24,0,0,1-.24.26Z" style="fill:#263238"></path><path d="M511.66,269.17h0a.25.25,0,0,1-.24-.26l1.79-69a.24.24,0,0,1,.25-.24h0a.25.25,0,0,1,.24.25l-1.79,69A.25.25,0,0,1,511.66,269.17Z" style="fill:#263238"></path><path d="M514,178.83h0a.26.26,0,0,1-.24-.26l1.68-64.93a.25.25,0,0,1,.25-.24h0a.23.23,0,0,1,.24.25l-1.68,64.93A.25.25,0,0,1,514,178.83Z" style="fill:#263238"></path><path d="M516.16,95.59h0a.25.25,0,0,1-.24-.26l.87-33.47a.25.25,0,0,1,.25-.24h0a.26.26,0,0,1,.25.26l-.87,33.47A.25.25,0,0,1,516.16,95.59Z" style="fill:#263238"></path><path d="M664.42,437.57h0a.25.25,0,0,1-.24-.26l1.06-29.43a.25.25,0,0,1,.26-.24.24.24,0,0,1,.24.26l-1.06,29.43A.26.26,0,0,1,664.42,437.57Z" style="fill:#263238"></path><path d="M666.58,377.73h0a.25.25,0,0,1-.24-.26l4.26-117.68a.25.25,0,0,1,.26-.24.24.24,0,0,1,.24.26l-4.26,117.68A.25.25,0,0,1,666.58,377.73Z" style="fill:#263238"></path><path d="M671.47,242.71h0a.25.25,0,0,1-.24-.26l1.69-46.66a.28.28,0,0,1,.26-.24.25.25,0,0,1,.24.26l-1.69,46.66A.24.24,0,0,1,671.47,242.71Z" style="fill:#263238"></path><path d="M673.6,183.89h0a.26.26,0,0,1-.24-.26l2.17-59.87a.25.25,0,0,1,.5,0l-2.17,59.87A.25.25,0,0,1,673.6,183.89Z" style="fill:#263238"></path><path d="M676.11,109.3h0a.24.24,0,0,1-.23-.26l.8-16.74a.25.25,0,0,1,.5,0l-.8,16.75A.25.25,0,0,1,676.11,109.3Z" style="fill:#263238"></path><path d="M639.36,451.93a.25.25,0,0,1-.25-.24l-.6-23.49a.25.25,0,0,1,.24-.26h0a.25.25,0,0,1,.25.24l.6,23.5a.23.23,0,0,1-.24.25Z" style="fill:#263238"></path><path d="M638.49,415.23a.24.24,0,0,1-.25-.24l-1-46.68a.24.24,0,0,1,.24-.26.27.27,0,0,1,.26.25l1,46.68a.25.25,0,0,1-.25.25Z" style="fill:#263238"></path><path d="M636.91,338.14a.26.26,0,0,1-.25-.25l-2-97.42a.26.26,0,0,1,.25-.26c.12,0,.25.11.25.25l2,97.42a.25.25,0,0,1-.24.26Z" style="fill:#263238"></path><path d="M634.22,206.14a.24.24,0,0,1-.25-.24L632.64,141a.24.24,0,0,1,.24-.26.26.26,0,0,1,.26.25l1.33,64.94a.25.25,0,0,1-.25.25Z" style="fill:#263238"></path><path d="M632.37,115.86a.25.25,0,0,1-.25-.25L632,66.87a.25.25,0,0,1,.24-.25h0a.25.25,0,0,1,.25.25l.12,48.74a.25.25,0,0,1-.25.25Z" style="fill:#263238"></path><path d="M601.1,441.63h0a.26.26,0,0,1-.25-.26l.48-18.25a.25.25,0,0,1,.25-.25h0a.26.26,0,0,1,.25.26l-.48,18.25A.25.25,0,0,1,601.1,441.63Z" style="fill:#263238"></path><path d="M601.94,409.15h0a.26.26,0,0,1-.25-.26l.95-36.46a.25.25,0,0,1,.25-.24h0a.25.25,0,0,1,.24.26l-.95,36.46A.25.25,0,0,1,601.94,409.15Z" style="fill:#263238"></path><path d="M603.55,347.28h0a.24.24,0,0,1-.24-.25l1.34-51.75a.25.25,0,0,1,.25-.24h0a.24.24,0,0,1,.24.25L603.8,347A.25.25,0,0,1,603.55,347.28Z" style="fill:#263238"></path><path d="M605.57,269.17h0a.26.26,0,0,1-.25-.26l1.8-69a.24.24,0,0,1,.25-.24h0a.25.25,0,0,1,.25.25l-1.8,69A.25.25,0,0,1,605.57,269.17Z" style="fill:#263238"></path><path d="M607.92,178.83h0a.25.25,0,0,1-.24-.26l1.68-64.93a.25.25,0,0,1,.25-.24h0a.24.24,0,0,1,.24.25l-1.68,64.93A.26.26,0,0,1,607.92,178.83Z" style="fill:#263238"></path><path d="M610.08,95.59h0a.25.25,0,0,1-.24-.26l.86-33.47a.26.26,0,0,1,.25-.24h0a.24.24,0,0,1,.24.26l-.86,33.47A.26.26,0,0,1,610.08,95.59Z" style="fill:#263238"></path><path d="M567.22,452.33a.27.27,0,0,1-.19-.08l-2.47-2.78a.23.23,0,0,1,0-.35.24.24,0,0,1,.35,0l2.47,2.77a.25.25,0,0,1,0,.36A.23.23,0,0,1,567.22,452.33Z" style="fill:#263238"></path><path d="M573,451.54l-.1,0a.25.25,0,0,1-.13-.33,4.74,4.74,0,0,1,3.91-2.53.25.25,0,1,1,.06.5,4.33,4.33,0,0,0-3.51,2.22A.25.25,0,0,1,573,451.54Z" style="fill:#263238"></path><path d="M636.89,452.33a.27.27,0,0,1-.19-.08l-2.47-2.78a.25.25,0,0,1,0-.35.24.24,0,0,1,.35,0l2.48,2.77a.26.26,0,0,1,0,.36A.27.27,0,0,1,636.89,452.33Z" style="fill:#263238"></path><path d="M642.66,451.54l-.09,0a.26.26,0,0,1-.14-.33,4.76,4.76,0,0,1,3.91-2.53.25.25,0,0,1,.28.21.26.26,0,0,1-.21.29,4.34,4.34,0,0,0-3.52,2.22A.25.25,0,0,1,642.66,451.54Z" style="fill:#263238"></path><path d="M519.81,452.33a.27.27,0,0,1-.19-.08l-2.47-2.78a.23.23,0,0,1,0-.35.24.24,0,0,1,.35,0l2.47,2.77a.25.25,0,0,1,0,.36A.23.23,0,0,1,519.81,452.33Z" style="fill:#263238"></path><path d="M525.58,451.54l-.1,0a.25.25,0,0,1-.13-.33,4.74,4.74,0,0,1,3.9-2.53.26.26,0,0,1,.29.21.27.27,0,0,1-.22.29,4.31,4.31,0,0,0-3.51,2.22A.25.25,0,0,1,525.58,451.54Z" style="fill:#263238"></path><path d="M153.18,454.31a.3.3,0,0,1-.15-.05L151,452.67a.25.25,0,0,1-.05-.35.26.26,0,0,1,.36,0l1.9,1.46,2.73-2.25a.25.25,0,0,1,.35,0,.25.25,0,0,1,0,.36l-2.89,2.38A.28.28,0,0,1,153.18,454.31Z" style="fill:#263238"></path></g></svg>
